SplineFontDB: 3.2
FontName: acil_air
FullName: acil_air
FamilyName: acil_air
Weight: Regular
Copyright: 
Version: 
ItalicAngle: 0
UnderlinePosition: 0
UnderlineWidth: 0
Ascent: 750
Descent: 250
InvalidEm: 0
LayerCount: 2
Layer: 0 0 "+gMyXYgAA" 1
Layer: 1 0 "+Uk2XYgAA" 0
XUID: [1021 15 -1218523096 7440]
FSType: 0
OS2Version: 0
OS2_WeightWidthSlopeOnly: 0
OS2_UseTypoMetrics: 0
CreationTime: 1742809414
ModificationTime: 1745168187
PfmFamily: 17
TTFWeight: 400
TTFWidth: 5
LineGap: 90
VLineGap: 90
OS2TypoAscent: 0
OS2TypoAOffset: 1
OS2TypoDescent: 0
OS2TypoDOffset: 1
OS2TypoLinegap: 90
OS2WinAscent: 0
OS2WinAOffset: 1
OS2WinDescent: 0
OS2WinDOffset: 1
HheadAscent: 0
HheadAOffset: 1
HheadDescent: 0
HheadDOffset: 1
OS2Vendor: 'PfEd'
MarkAttachClasses: 1
DEI: 91125
LangName: 1033
Encoding: Custom
Compacted: 1
UnicodeInterp: none
NameList: AGL For New Fonts
DisplaySize: -48
AntiAlias: 1
FitToEm: 0
WidthSeparation: 10
WinInfo: 0 25 15
BeginPrivate: 0
EndPrivate
BeginChars: 257 80

StartChar: 
Encoding: 97 97 0
Width: 378
VWidth: 752
Flags: HW
LayerCount: 2
Fore
SplineSet
225.390625 505.92578125 m 0
 192.615234375 505.889648438 163.524414062 496.0546875 140 479.8359375 c 1
 140 502 l 1
 50 481.009765625 l 1
 5 470.05078125 l 1
 5 457.05078125 l 1
 47.6572265625 457.05078125 50 440.6484375 50 407.009765625 c 2
 50 2 l 1
 140 2 l 1
 140 32.744140625 l 1
 163.5234375 13.146484375 192.086914062 1.0439453125 225.390625 2 c 0
 307.10546875 2 373.349609375 54.2138671875 373.349609375 164 c 0
 373.349609375 226.696289062 332.251953125 264.698242188 282.2265625 284.51171875 c 1
 332.252929688 297.873046875 373.349609375 327.229492188 373.349609375 389.92578125 c 0
 373.349609375 473.548828125 307.10546875 505.92578125 225.390625 505.92578125 c 0
205.267578125 472.318359375 m 0
 235.129882812 472.318359375 279 473.182617188 279 389.92578125 c 0
 279 318.157226562 233.482421875 301.525390625 190.224609375 301.92578125 c 1
 190.88671875 292.610351562 190.52734375 283.31640625 190.224609375 274 c 1
 227.658203125 274.376953125 279 224.813476562 279 152 c 0
 279 91.2431640625 235.129882812 67.607421875 205.267578125 67.607421875 c 0
 179.38671875 67.087890625 157.936523438 75.6650390625 140 89.349609375 c 1
 140 448.158203125 l 1
 159.259765625 463.334960938 182.008789062 472.78515625 205.267578125 472.318359375 c 0
EndSplineSet
Validated: 2621481
EndChar

StartChar: 
Encoding: 98 98 1
Width: 396
VWidth: 752
Flags: HW
LayerCount: 2
Fore
SplineSet
140 752 m 1
 50 731.009765625 l 1
 5 720.05078125 l 1
 5 707.05078125 l 1
 47.6572265625 707.05078125 50 690.6484375 50 657.009765625 c 2
 50 252 l 1
 50 235.736328125 l 2
 50 192.236328125 58.9150390625 2 211.43359375 2 c 0
 336.142578125 2 390.849609375 110.953125 390.849609375 264.990234375 c 0
 390.849609375 402.052734375 270.284179688 566 140 478 c 1
 140 752 l 1
200.9921875 470.337890625 m 0
 266.49609375 466.336914062 305.466796875 355.131835938 305.466796875 261.904296875 c 0
 305.466796875 139.725585938 264.275390625 55.4873046875 221.359375 54.89453125 c 0
 141.579101562 53.7919921875 140 252 140 252 c 1
 140 445.736328125 l 1
 162.228515625 464.173828125 182.651367188 471.458007812 200.9921875 470.337890625 c 0
EndSplineSet
EndChar

StartChar: 
Encoding: 99 99 2
Width: 330
VWidth: 752
Flags: HW
LayerCount: 2
Fore
SplineSet
176.828125 502 m 0
 89.4130859375 501.854492188 32.609375 427.01171875 32.609375 380.002929688 c 1
 46.16796875 368.2890625 l 1
 46.16796875 426.6328125 109.043945312 461.15625 156.705078125 459.724609375 c 0
 186.567382812 459.724609375 230.4375 456.943359375 230.4375 332.395507812 c 0
 230.4375 225.033203125 184.919921875 166.153320312 141.662109375 166.751953125 c 1
 142.32421875 152.817382812 141.96484375 160.913085938 141.662109375 146.9765625 c 1
 179.095703125 147.541015625 230.4375 107.724609375 230.4375 -29.5283203125 c 0
 230.4375 -120.41796875 199.6015625 -183.775390625 156.705078125 -183.775390625 c 0
 100.078125 -185.475585938 44.4599609375 -128.482421875 21.134765625 -61.3291015625 c 1
 5 -63.4443359375 l 1
 24.3056640625 -174.107421875 93.91015625 -251.483398438 176.828125 -247.920898438 c 0
 296.139648438 -247.920898438 324.787109375 -126.767578125 324.787109375 -30.1796875 c 0
 324.787109375 86.28125 283.69140625 123.0625 233.666015625 152.702148438 c 1
 283.692382812 172.689453125 324.787109375 238.60546875 324.787109375 332.395507812 c 0
 324.787109375 457.4921875 258.54296875 502 176.828125 502 c 0
EndSplineSet
Validated: 2621481
EndChar

StartChar: 
Encoding: 100 100 3
Width: 639
VWidth: 752
Flags: HW
LayerCount: 2
Fore
SplineSet
140 502 m 1
 50 481.009765625 l 1
 5 470.05078125 l 1
 5 457.05078125 l 1
 47.6572265625 457.05078125 50 440.6484375 50 407.009765625 c 2
 50 403.005859375 l 1
 50 95 l 2
 50 51.5 77.30078125 2 154.865234375 2 c 0
 201.366210938 2 237.321289062 33.572265625 259.998046875 95 c 1
 259.998046875 51.5 287.298828125 2 364.86328125 2 c 0
 411.364257812 2 447.321289062 33.572265625 469.998046875 95 c 1
 469.998046875 51.5 494.702148438 2 545.43359375 2 c 0
 605.784179688 2 625.70703125 64.05859375 633.998046875 95 c 1
 623.998046875 107 l 1
 606.38671875 60.078125 581.36328125 55.751953125 569.2734375 66.33203125 c 0
 558.791992188 75.50390625 559.998046875 95.69921875 559.998046875 111.263671875 c 2
 559.998046875 403.005859375 l 1
 559.998046875 502 l 1
 469.998046875 481.009765625 l 1
 424.998046875 470.05078125 l 1
 424.998046875 457.05078125 l 1
 467.655273438 457.05078125 469.998046875 440.6484375 469.998046875 407.009765625 c 2
 469.998046875 403.005859375 l 1
 469.998046875 137 l 1
 469.998046875 137 435.236328125 54.89453125 398.7890625 54.89453125 c 0
 371.000976562 54.89453125 354.6640625 65.4951171875 349.998046875 111.263671875 c 1
 349.998046875 403.005859375 l 1
 349.998046875 502 l 1
 259.998046875 481.009765625 l 1
 214.998046875 470.05078125 l 1
 214.998046875 457.05078125 l 1
 257.655273438 457.05078125 259.998046875 440.6484375 259.998046875 407.009765625 c 2
 259.998046875 403.005859375 l 1
 259.998046875 137 l 1
 259.998046875 137 225.236328125 54.89453125 188.7890625 54.89453125 c 0
 161.000976562 54.89453125 144.666015625 65.4951171875 140 111.263671875 c 1
 140 403.005859375 l 1
 140 502 l 1
EndSplineSet
Validated: 2621481
EndChar

StartChar: 
Encoding: 101 101 4
Width: 429
VWidth: 752
Flags: HW
LayerCount: 2
Fore
SplineSet
140 502 m 1
 50 481.009765625 l 1
 5 470.05078125 l 1
 5 457.05078125 l 1
 47.6572265625 457.05078125 50 440.6484375 50 407.009765625 c 2
 50 403.005859375 l 1
 50 95 l 2
 50 51.5 77.30078125 2 154.865234375 2 c 0
 201.366210938 2 237.323242188 33.572265625 260 95 c 1
 260 51.5 284.702148438 2 335.43359375 2 c 0
 395.784179688 2 415.708984375 64.05859375 424 95 c 1
 414 107 l 1
 396.388671875 60.078125 371.365234375 55.751953125 359.275390625 66.33203125 c 0
 348.793945312 75.50390625 350 95.69921875 350 111.263671875 c 2
 350 403.005859375 l 1
 350 502 l 1
 260 481.009765625 l 1
 215 470.05078125 l 1
 215 457.05078125 l 1
 257.657226562 457.05078125 260 440.6484375 260 407.009765625 c 2
 260 403.005859375 l 1
 260 137 l 1
 260 137 225.23828125 54.89453125 188.791015625 54.89453125 c 0
 161.002929688 54.89453125 144.666015625 65.4951171875 140 111.263671875 c 1
 140 403.005859375 l 1
 140 502 l 1
EndSplineSet
Validated: 2621481
EndChar

StartChar: 
Encoding: 102 102 5
Width: 474
VWidth: 752
Flags: HW
LayerCount: 2
Fore
SplineSet
127.158203125 502 m 2
 78.10546875 502 5.158203125 469.501953125 5.158203125 381 c 2
 5.158203125 2 l 1
 95.158203125 2 l 1
 95.158203125 364.736328125 l 2
 95.158203125 499.204101562 175.158203125 510.485351562 175.158203125 364.736328125 c 2
 175.158203125 2 l 1
 265.158203125 2 l 1
 265.158203125 364.736328125 l 2
 265.158203125 510.485351562 345.158203125 499.204101562 345.158203125 364.736328125 c 2
 345.158203125 50 l 2
 341.66015625 -31.6513671875 323.395507812 -111.0625 152.552734375 -129.078125 c 1
 97.03125 -130.737304688 5 -236.7109375 5 -236.7109375 c 1
 13 -244.47265625 l 1
 47.658203125 -200.235351562 121.13671875 -195.084960938 162.536132812 -202.513671875 c 0
 172.598632812 -207.25390625 321.572265625 -245.485351562 331.60546875 -245.185546875 c 0
 387.125976562 -243.526367188 469.158203125 -137.552734375 469.158203125 -137.552734375 c 1
 461.158203125 -129.791015625 l 1
 426.500976562 -174.026367188 371.0234375 -182.1796875 321.625 -171.751953125 c 0
 315.80859375 -169.01171875 263.641601562 -155.125 218.61328125 -143.904296875 c 1
 363.034179688 -127.258789062 429.403320312 -34.650390625 434.76171875 40.18359375 c 1
 435.158203125 40.18359375 l 1
 435.158203125 50 l 1
 435.158203125 381 l 2
 435.158203125 469.501953125 362.2109375 502 313.158203125 502 c 2
 297.158203125 502 l 2
 269.977539062 502 238.921875 486 220.158203125 453.501953125 c 1
 201.395507812 486 170.338867188 502 143.158203125 502 c 2
 127.158203125 502 l 2
EndSplineSet
Validated: 2621481
EndChar

StartChar: 
Encoding: 103 103 6
Width: 312
VWidth: 752
Flags: HW
LayerCount: 2
Fore
SplineSet
163 502 m 0
 75.7392578125 502 5 390.071289062 5 252 c 0
 5 113.928710938 75.7392578125 2 163 2 c 0
 226.830078125 2 281.783203125 61.9267578125 306.7109375 148.130859375 c 1
 288.296875 148.130859375 l 1
 235.565429688 61.3359375 197.16015625 76.091796875 179.791015625 76.091796875 c 0
 162.999023438 76.091796875 104.1484375 100.336914062 104.1484375 252 c 0
 104.1484375 264.2578125 104.247070312 274.85546875 104.314453125 285.94140625 c 1
 298.7109375 285.94140625 l 1
 298.7109375 285.990234375 l 1
 299.422851562 285.985351562 299.975585938 285.94140625 300.7109375 285.94140625 c 0
 310.321289062 418.948242188 259.389648438 502 163 502 c 0
151.685546875 469.302734375 m 0
 194.943359375 469.302734375 223.416015625 397.340820312 223.416015625 314.224609375 c 1
 104.544921875 314.224609375 l 1
 106.220703125 425.837890625 114.671875 469.302734375 151.685546875 469.302734375 c 0
50.349609375 -76.251953125 m 1
 54.14453125 -131.766601562 100.211914062 -174.901367188 155.85546875 -175.04296875 c 0
 211.499023438 -174.901367188 257.56640625 -131.766601562 261.361328125 -76.251953125 c 1
 247.642578125 -76.251953125 l 1
 241.087890625 -101.297851562 201.985351562 -119.900390625 155.85546875 -119.91796875 c 0
 109.725585938 -119.900390625 70.625 -101.297851562 64.0703125 -76.251953125 c 1
 50.349609375 -76.251953125 l 1
EndSplineSet
Validated: 2621481
EndChar

StartChar: 
Encoding: 104 104 7
Width: 312
VWidth: 752
Flags: HW
LayerCount: 2
Fore
SplineSet
162.999023438 502 m 0
 75.7392578125 502 5 390.071289062 5 252 c 0
 5 113.928710938 75.7392578125 2 162.999023438 2 c 0
 226.830078125 2 281.780273438 61.9267578125 306.708984375 148.130859375 c 1
 288.296875 148.130859375 l 1
 235.56640625 61.3359375 197.161132812 76.091796875 179.791992188 76.091796875 c 0
 162.999023438 76.091796875 104.1484375 100.336914062 104.1484375 252 c 0
 104.1484375 410.250976562 164.415039062 498.092773438 209.663085938 465.509765625 c 0
 254.91015625 432.926757812 205.022460938 398.880859375 218.916992188 363.8515625 c 0
 232.811523438 328.822265625 271.829101562 329.07421875 284.788085938 337.716796875 c 0
 297.747070312 346.359375 299.5 368.310546875 297.287109375 377.534179688 c 0
 286.927734375 454.759765625 237.547851562 502 162.999023438 502 c 0
EndSplineSet
Validated: 2621481
EndChar

StartChar: 
Encoding: 105 105 8
Width: 429
VWidth: 752
Flags: HW
LayerCount: 2
Fore
SplineSet
140 502 m 1
 50 481.009765625 l 1
 5 470.05078125 l 1
 5 457.05078125 l 1
 47.6572265625 457.05078125 50 440.6484375 50 407.009765625 c 2
 50 2 l 1
 140 2 l 1
 140 367 l 1
 140 367 174.76171875 449.10546875 211.208984375 449.10546875 c 0
 238.997070312 449.10546875 255.333984375 438.504882812 260 392.736328125 c 1
 260 100.994140625 l 1
 260 95 l 2
 260 51.5 284.702148438 2 335.43359375 2 c 0
 395.784179688 2 415.708984375 64.05859375 424 95 c 1
 414 107 l 1
 396.388671875 60.078125 371.365234375 55.751953125 359.275390625 66.33203125 c 0
 350.982421875 73.5888671875 350.024414062 87.689453125 349.978515625 100.994140625 c 1
 350 100.994140625 l 1
 350 111.263671875 l 1
 350 403.005859375 l 1
 350 409 l 2
 350 452.5 322.69921875 502 245.134765625 502 c 0
 198.633789062 502 162.676757812 470.427734375 140 409 c 1
 140 502 l 1
EndSplineSet
Validated: 2621481
EndChar

StartChar: 
Encoding: 106 106 9
Width: 355
VWidth: 752
Flags: HW
LayerCount: 2
Fore
SplineSet
140 502 m 1
 50 481.009765625 l 1
 5 470.05078125 l 1
 5 457.05078125 l 1
 47.6572265625 457.05078125 50 440.6484375 50 407.009765625 c 2
 50 403.005859375 l 1
 50 95 l 2
 50 51.5 77.30078125 2 154.865234375 2 c 0
 201.366210938 2 237.321289062 33.572265625 259.998046875 95 c 1
 259.998046875 -23.736328125 l 2
 259.998046875 -77.3974609375 257.454101562 -221.072265625 188.455078125 -222.046875 c 0
 168.998046875 -225.458984375 155.444335938 -205.509765625 151.71484375 -190.05859375 c 0
 134.959960938 -152.028320312 106.822265625 -153.462890625 87.68359375 -160.173828125 c 0
 40.572265625 -176.693359375 87.744140625 -248 178.220703125 -248 c 0
 349.999023438 -248 349.998046875 -83.5 349.998046875 -40 c 2
 349.998046875 403.005859375 l 1
 349.998046875 502 l 1
 259.998046875 481.009765625 l 1
 214.998046875 470.05078125 l 1
 214.998046875 457.05078125 l 1
 257.655273438 457.05078125 259.998046875 440.6484375 259.998046875 407.009765625 c 2
 259.998046875 403.005859375 l 1
 259.998046875 137 l 1
 259.998046875 137 225.23828125 54.89453125 188.791015625 54.89453125 c 0
 161.002929688 54.89453125 144.666015625 65.4951171875 140 111.263671875 c 1
 140 403.005859375 l 1
 140 502 l 1
EndSplineSet
Validated: 2621481
EndChar

StartChar: 
Encoding: 108 108 10
Width: 314
VWidth: 752
Flags: HW
LayerCount: 2
Fore
SplineSet
160.828125 505.92578125 m 0
 86.2705078125 505.842773438 30.779296875 455.095703125 16.609375 393.673828125 c 1
 30.16796875 385.84375 l 1
 47.3974609375 432.975585938 93.0439453125 473.274414062 140.705078125 472.318359375 c 0
 170.567382812 472.318359375 214.4375 473.182617188 214.4375 389.92578125 c 0
 214.4375 318.157226562 168.919921875 301.525390625 125.662109375 301.92578125 c 1
 126.32421875 292.610351562 125.96484375 283.31640625 125.662109375 274 c 1
 163.095703125 274.376953125 214.4375 224.813476562 214.4375 152 c 0
 214.4375 91.2431640625 170.567382812 67.607421875 140.705078125 67.607421875 c 0
 84.078125 66.470703125 48.4599609375 108.580078125 25.134765625 153.470703125 c 1
 5 152.056640625 l 1
 24.3056640625 78.0810546875 77.91015625 -0.3818359375 160.828125 2 c 0
 242.54296875 2 308.787109375 54.2138671875 308.787109375 164 c 0
 308.787109375 226.696289062 267.69140625 264.698242188 217.666015625 284.51171875 c 1
 267.692382812 297.873046875 308.787109375 327.229492188 308.787109375 389.92578125 c 0
 308.787109375 473.548828125 242.54296875 505.92578125 160.828125 505.92578125 c 0
EndSplineSet
Validated: 2621481
EndChar

StartChar: 
Encoding: 109 109 11
Width: 382
VWidth: 752
Flags: HW
LayerCount: 2
Fore
SplineSet
217.952148438 750 m 0
 312.680664062 750 308.967773438 560.125976562 271.107421875 447.208984375 c 1
 271.233398438 447.172851562 l 1
 270.276367188 444.568359375 l 2
 270.110351562 444.084960938 269.969726562 443.545898438 269.802734375 443.065429688 c 2
 264.880859375 428.931640625 l 1
 223.73828125 317.249023438 l 1
 339.508789062 255.834960938 402.912109375 13.896484375 367.47265625 -87.875 c 0
 320.856445312 -221.741210938 234.052734375 -288.978515625 111.336914062 -226.40625 c 0
 -34.8349609375 -151.873046875 7.46484375 10.2080078125 21.9384765625 53.572265625 c 1
 21.7890625 53.615234375 l 1
 22.798828125 56.3583984375 l 2
 22.916015625 56.701171875 23.10546875 57.3984375 23.2177734375 57.720703125 c 2
 28.1416015625 71.8544921875 l 1
 176.319335938 474.088867188 l 2
 235.010742188 625.641601562 238.700195312 712.782226562 216.252929688 718.735351562 c 0
 158.852539062 733.958007812 59.2421875 348.01171875 118.528320312 348.01171875 c 1
 117.973632812 346.76171875 l 1
 108.763671875 325.994140625 l 1
 -39.173828125 325.994140625 45.1044921875 750 217.952148438 750 c 0
212.877929688 287.76953125 m 1
 116.701171875 26.697265625 l 1
 116.701171875 26.697265625 58.2724609375 -146.345703125 137.110351562 -185.41796875 c 0
 179.51953125 -206.435546875 245.546875 -153.89453125 282.520507812 -47.7158203125 c 0
 311.796875 36.3564453125 289.303710938 229.502929688 212.877929688 287.76953125 c 1
EndSplineSet
EndChar

StartChar: 
Encoding: 110 110 12
Width: 549
VWidth: 752
Flags: HW
LayerCount: 2
Fore
SplineSet
140 502 m 1
 50 481.009765625 l 1
 5 470.05078125 l 1
 5 457.05078125 l 1
 47.6572265625 457.05078125 50 440.6484375 50 407.009765625 c 2
 50 403.005859375 l 1
 50 95 l 2
 50 51.5 77.30078125 2 154.865234375 2 c 0
 191.572265625 2 221.673828125 21.755859375 243.89453125 60.2578125 c 1
 265.477539062 15.150390625 319.044921875 2 348.59375 2 c 0
 418.825195312 2 494.685546875 85.91796875 494.685546875 212.462890625 c 1
 511.0625 212.059570312 527.444335938 212.248046875 543.82421875 212.212890625 c 1
 542.90234375 229 l 1
 542.90234375 229 523.959960938 227.213867188 496.033203125 227.90625 c 1
 496.65234375 237.133789062 497 242.497070312 497 252 c 0
 497 390.0703125 436.6171875 502 353.763671875 502 c 0
 258.859375 502 223.4453125 425.150390625 223.4453125 389.869140625 c 1
 223.4453125 389.869140625 217.604492188 257.512695312 400.6953125 218.767578125 c 1
 400.6953125 -17.2626953125 194.741210938 48.771484375 287.107421875 218.0078125 c 1
 276.515625 229.892578125 l 1
 241.938476562 170.00390625 231.645507812 125.153320312 235.240234375 91.76953125 c 1
 222.3359375 72.732421875 205.771484375 54.89453125 188.791015625 54.89453125 c 0
 161.002929688 54.89453125 144.666015625 65.4951171875 140 111.263671875 c 1
 140 403.005859375 l 1
 140 502 l 1
333.46484375 462 m 0
 367.345703125 462 401.3359375 403.663085938 401.3359375 252 c 0
 401.3359375 246.505859375 401.186523438 241.427734375 401.099609375 236.17578125 c 1
 273.545898438 252 255.578125 462 333.46484375 462 c 0
EndSplineSet
Validated: 2621481
EndChar

StartChar: 
Encoding: 111 111 13
Width: 357
VWidth: 752
Flags: HW
LayerCount: 2
Fore
SplineSet
138.916992188 502 m 0
 72.5654296875 502 25.6484375 466.614257812 7.2666015625 407.107421875 c 1
 18.5791015625 393.9921875 l 1
 18.5791015625 393.9921875 49.169921875 469.627929688 116.803710938 468.392578125 c 0
 154.4296875 468.392578125 191.854492188 419.462890625 197.137695312 285.232421875 c 1
 -1.30859375 246.487304688 5.0224609375 114.130859375 5.0224609375 114.130859375 c 1
 5.0224609375 78.849609375 43.4072265625 2 146.270507812 2 c 0
 236.072265625 2 301.518554688 113.9296875 301.518554688 252 c 0
 301.518554688 261.502929688 301.142578125 266.866210938 300.471679688 276.09375 c 1
 330.740234375 276.786132812 351.270507812 275 351.270507812 275 c 1
 352.270507812 291.787109375 l 1
 334.516601562 291.751953125 316.760742188 291.940429688 299.010742188 291.537109375 c 1
 285.603515625 408.840820312 219.0546875 502 138.916992188 502 c 0
197.577148438 267.82421875 m 1
 197.670898438 262.572265625 197.833007812 257.494140625 197.833007812 252 c 0
 197.833007812 100.336914062 160.993164062 42 124.270507812 42 c 0
 39.8515625 42 59.326171875 252 197.577148438 267.82421875 c 1
EndSplineSet
EndChar

StartChar: 
Encoding: 112 112 14
Width: 440
VWidth: 752
Flags: HW
LayerCount: 2
Fore
SplineSet
109.25390625 502 m 0
 48.2958984375 502 9.109375 457.823242188 5 394.07421875 c 1
 17.861328125 382.07421875 l 1
 17.861328125 382.07421875 25.6328125 468.793945312 88.9375 468.392578125 c 0
 126.236328125 468.15625 155.423828125 411.624023438 155.423828125 252 c 0
 155.423828125 100.336914062 141.84765625 51 99.60546875 51 c 0
 40.3896484375 51 17.1025390625 93.3046875 16.0390625 148.130859375 c 1
 6.55859375 148.130859375 l 1
 6.7646484375 25.2978515625 71.9287109375 2 107.126953125 2 c 0
 147.163085938 2 210.314453125 52.7197265625 210.314453125 97.322265625 c 1
 210.314453125 55.998046875 271.676757812 2 310.580078125 2 c 0
 369.22265625 2 429.853515625 51.7666015625 429.853515625 148.130859375 c 1
 417.328125 148.130859375 l 1
 417.328125 98.9873046875 377.469726562 50.091796875 326.0078125 50.091796875 c 0
 288.256835938 50.091796875 266.51171875 100.336914062 266.51171875 252 c 0
 266.51171875 410.250976562 306.520507812 490.333984375 342.927734375 466.216796875 c 0
 359.986328125 454.916992188 351.3125 430.380859375 361.951171875 407.8515625 c 0
 377.932617188 374.010742188 410.565429688 373.07421875 422.470703125 381.716796875 c 0
 434.376953125 390.359375 439.288085938 405.927734375 430.5703125 426.12890625 c 0
 421.852539062 446.330078125 392.599609375 502 310.580078125 502 c 0
 271.951171875 502 236.875 475.961914062 210.8671875 433.583984375 c 1
 184.61328125 475.961914062 149.0078125 502 109.25390625 502 c 0
EndSplineSet
Validated: 2621481
EndChar

StartChar: 
Encoding: 113 113 15
Width: 460
VWidth: 752
Flags: HW
LayerCount: 2
Fore
SplineSet
104.411132812 502 m 0
 59.876953125 502 18.9365234375 466.614257812 6.5986328125 407.107421875 c 1
 14.1904296875 393.9921875 l 1
 14.1904296875 393.9921875 44.17578125 469.627929688 89.5693359375 468.392578125 c 0
 114.823242188 468.392578125 130.254882812 432.581054688 130.254882812 285.232421875 c 1
 -2.9375 246.487304688 5.0927734375 114.130859375 5.0927734375 114.130859375 c 1
 5.0927734375 36.5888671875 40.3076171875 2 109.346679688 2 c 0
 171.204101562 2 213.545898438 72.7578125 213.545898438 252 c 0
 213.545898438 261.502929688 213.293945312 266.866210938 212.842773438 276.09375 c 1
 219.643554688 276.325195312 225.327148438 276.240234375 230.391601562 276.076171875 c 1
 230.020507812 268.149414062 229.813476562 260.125 229.813476562 252 c 0
 229.813476562 113.928710938 271.026367188 2 343.420898438 2 c 0
 409.307617188 2 438.267578125 61.9267578125 454.999023438 148.130859375 c 1
 435.079101562 148.130859375 l 1
 399.6875 61.3359375 366.350585938 76.091796875 354.692382812 76.091796875 c 0
 343.421875 76.091796875 309.592773438 100.336914062 309.592773438 252 c 0
 309.592773438 410.250976562 338.760742188 487.487304688 374.741210938 465.509765625 c 0
 410.721679688 443.532226562 382.967773438 398.880859375 392.293945312 363.8515625 c 0
 401.619140625 328.822265625 427.806640625 329.07421875 436.504882812 337.716796875 c 0
 445.203125 346.359375 446.37890625 368.309570312 444.893554688 377.533203125 c 0
 436 476.313476562 393.456054688 502 343.420898438 502 c 0
 290.600585938 502 240.666992188 410.948242188 231.372070312 291.798828125 c 1
 224.868164062 291.798828125 218.364257812 291.7578125 211.862304688 291.537109375 c 1
 202.864257812 408.840820312 158.198242188 502 104.411132812 502 c 0
130.549804688 267.82421875 m 1
 130.61328125 262.572265625 130.721679688 257.494140625 130.721679688 252 c 0
 130.721679688 79.2060546875 119.228515625 42 94.5810546875 42 c 0
 59.4296875 42 37.7587890625 252 130.549804688 267.82421875 c 1
EndSplineSet
EndChar

StartChar: 
Encoding: 114 114 16
Width: 265
VWidth: 752
Flags: HW
LayerCount: 2
Fore
SplineSet
140 750.67578125 m 1
 50 729.6875 l 1
 5 718.7265625 l 1
 5 705.7265625 l 1
 47.6572265625 705.7265625 50 689.325195312 50 655.6875 c 2
 50 651.681640625 l 1
 50 95 l 2
 50 51.5 77.30078125 2 154.865234375 2 c 0
 201.366210938 2 237.323242188 33.572265625 260 95 c 1
 250 107 l 1
 250 107 225.23828125 54.89453125 188.791015625 54.89453125 c 0
 161.002929688 54.89453125 144.666015625 65.4951171875 140 111.263671875 c 1
 140 651.681640625 l 1
 140 750.67578125 l 1
EndSplineSet
Validated: 2621449
EndChar

StartChar: 
Encoding: 115 115 17
Width: 403
VWidth: 752
Flags: HW
LayerCount: 2
Fore
SplineSet
140 502 m 1
 50 481.009765625 l 1
 5 470.05078125 l 1
 5 457.05078125 l 1
 47.6572265625 457.05078125 50 440.6484375 50 407.009765625 c 2
 50 2 l 1
 140 2 l 1
 140 50.275390625 l 1
 166.88671875 19.984375 200.002929688 2 235.89453125 2 c 0
 325.697265625 2 398.498046875 113.9296875 398.498046875 252 c 0
 398.498046875 390.0703125 325.697265625 502 235.89453125 502 c 0
 196.366210938 502 163.809570312 489.358398438 140 466.623046875 c 1
 140 502 l 1
213.78125 468.392578125 m 0
 254.376953125 468.392578125 294.810546875 411.624023438 294.810546875 252 c 0
 294.810546875 100.336914062 271.373046875 39 234.650390625 39 c 0
 214.409179688 39 174.44140625 38.83984375 140 83.2421875 c 1
 140 436.298828125 l 1
 156.594726562 452.975585938 181.044921875 468.990234375 213.78125 468.392578125 c 0
EndSplineSet
Validated: 2621481
EndChar

StartChar: 
Encoding: 116 116 18
Width: 432
VWidth: 752
Flags: HW
LayerCount: 2
Fore
SplineSet
140 502 m 1
 50 481.009765625 l 1
 5 470.05078125 l 1
 5 457.05078125 l 1
 47.6572265625 457.05078125 50 440.6484375 50 407.009765625 c 2
 50 2 l 1
 140 2 l 1
 263.5 400.294921875 l 1
 263.5 95 l 2
 263.5 51.5 288.204101562 2 338.935546875 2 c 0
 399.286132812 2 419.208984375 64.05859375 427.5 95 c 1
 417.5 107 l 1
 399.888671875 60.078125 374.865234375 55.751953125 362.775390625 66.33203125 c 0
 352.293945312 75.50390625 353.5 95.69921875 353.5 111.263671875 c 2
 353.5 502 l 1
 263.5 502 l 1
 140 103.705078125 l 1
 140 502 l 1
EndSplineSet
Validated: 2621481
EndChar

StartChar: 
Encoding: 117 117 19
Width: 320
VWidth: 752
Flags: HW
LayerCount: 2
Fore
SplineSet
152.895507812 502 m 0
 86.5439453125 502 39.626953125 466.614257812 21.2451171875 407.107421875 c 1
 32.55859375 391.991210938 l 1
 32.55859375 391.991210938 63.1494140625 469.62890625 130.782226562 468.393554688 c 0
 171.377929688 468.393554688 211.811523438 411.624023438 211.811523438 252 c 0
 211.811523438 100.336914062 188.374023438 39 151.651367188 39 c 0
 124.326171875 39 61.037109375 38.6171875 23.9482421875 148.130859375 c 1
 5 148.130859375 l 1
 30.654296875 61.9267578125 87.2060546875 2 152.895507812 2 c 0
 242.698242188 2 315.498046875 113.9296875 315.498046875 252 c 0
 315.498046875 390.0703125 242.698242188 502 152.895507812 502 c 0
EndSplineSet
Validated: 2621481
EndChar

StartChar: 
Encoding: 118 118 20
Width: 434
VWidth: 752
Flags: HW
LayerCount: 2
Fore
SplineSet
201 502 m 2
 151.948242188 502 55 469.501953125 55 381 c 2
 55 2 l 1
 145 2 l 1
 145 364.736328125 l 2
 145 399.14453125 156.645507812 469.501953125 201 469.501953125 c 2
 209 469.501953125 l 1
 217 469.501953125 l 2
 261.35546875 469.501953125 273 399.14453125 273 364.736328125 c 2
 273 50 l 2
 273 -29.37109375 227.373046875 -107.069335938 147.923828125 -129.474609375 c 1
 92.07421875 -136.466796875 5 -236.7109375 5 -236.7109375 c 2
 13 -244.47265625 l 1
 47.66015625 -200.235351562 121.13671875 -195.084960938 162.537109375 -202.513671875 c 0
 172.598632812 -207.25390625 281.571289062 -245.485351562 291.603515625 -245.185546875 c 0
 347.125 -243.526367188 429.15625 -137.552734375 429.15625 -137.552734375 c 2
 421.15625 -129.791015625 l 1
 386.498046875 -174.026367188 331.024414062 -182.1796875 281.625 -171.751953125 c 0
 274.900390625 -168.583984375 224.237304688 -150.572265625 188.201171875 -138.986328125 c 1
 260.737304688 -107.637695312 363 -21.6875 363 50 c 2
 363 381 l 2
 363 469.501953125 266.051757812 502 217 502 c 2
 209 502 l 1
 201 502 l 2
EndSplineSet
Validated: 2621481
EndChar

StartChar: 
Encoding: 119 119 21
Width: 375
VWidth: 752
Flags: HW
LayerCount: 2
Fore
SplineSet
187.5 502 m 0
 86.7080078125 502 5 390.071289062 5 252 c 0
 5 113.928710938 86.7080078125 2 187.5 2 c 0
 288.291992188 2 370 113.928710938 370 252 c 0
 370 390.071289062 288.291992188 502 187.5 502 c 0
157.819335938 474.89453125 m 0
 203.016601562 480.653320312 252.9453125 391.052734375 269.337890625 262.4296875 c 0
 285.731445312 133.805664062 262.379882812 34.865234375 217.181640625 29.10546875 c 0
 171.984375 23.3466796875 122.0546875 112.947265625 105.662109375 241.5703125 c 0
 89.2685546875 370.194335938 112.62109375 469.134765625 157.819335938 474.89453125 c 0
EndSplineSet
Validated: 2621481
EndChar

StartChar: 
Encoding: 120 120 22
Width: 440
VWidth: 752
Flags: HW
LayerCount: 2
Fore
SplineSet
127 502 m 2
 77.947265625 502 5 469.501953125 5 381 c 2
 5 2 l 1
 95 2 l 1
 95 364.736328125 l 2
 95 499.204101562 175 510.485351562 175 364.736328125 c 2
 175 2 l 1
 265 2 l 1
 265 364.736328125 l 2
 265 510.485351562 345 499.204101562 345 364.736328125 c 2
 345 40.18359375 l 1
 345 -23.736328125 l 2
 345 -77.3974609375 358.456054688 -221.072265625 289.45703125 -222.046875 c 0
 270 -225.458984375 256.443359375 -205.509765625 252.71484375 -190.05859375 c 0
 235.959960938 -152.028320312 207.82421875 -153.462890625 188.685546875 -160.173828125 c 0
 141.57421875 -176.693359375 188.74609375 -248 279.22265625 -248 c 0
 407.69921875 -248 435 -83.5 435 -40 c 2
 435 40.18359375 l 1
 435 367 l 1
 435 381 l 2
 435 469.501953125 362.051757812 502 313 502 c 2
 297 502 l 2
 269.819335938 502 238.762695312 486 220 453.501953125 c 1
 201.237304688 486 170.1796875 502 143 502 c 2
 127 502 l 2
EndSplineSet
Validated: 2621481
EndChar

StartChar: 
Encoding: 121 121 23
Width: 410
VWidth: 752
Flags: HW
LayerCount: 2
Fore
SplineSet
104.413085938 502 m 0
 59.87890625 502 18.9375 466.614257812 6.6005859375 407.107421875 c 1
 14.1923828125 393.9921875 l 1
 14.1923828125 393.9921875 44.1767578125 469.627929688 89.5712890625 468.392578125 c 0
 114.825195312 468.392578125 130.256835938 432.581054688 130.256835938 285.232421875 c 1
 -2.9365234375 246.487304688 5.0927734375 114.130859375 5.0927734375 114.130859375 c 1
 5.0927734375 36.5888671875 40.30859375 2 109.348632812 2 c 0
 171.205078125 2 213.547851562 72.7578125 213.547851562 252 c 0
 213.547851562 261.502929688 213.294921875 266.866210938 212.844726562 276.09375 c 1
 226.223632812 276.549804688 234.859375 276.026367188 240.500976562 275.55078125 c 1
 240.500976562 95 l 2
 240.500976562 51.5 265.203125 2 315.934570312 2 c 0
 376.28515625 2 396.209960938 64.05859375 404.500976562 95 c 1
 394.500976562 107 l 1
 376.889648438 60.078125 351.866210938 55.751953125 339.776367188 66.33203125 c 0
 329.294921875 75.50390625 330.500976562 95.69921875 330.500976562 111.263671875 c 2
 330.500976562 403.005859375 l 1
 330.500976562 502 l 1
 240.500976562 481.009765625 l 1
 195.500976562 470.05078125 l 1
 195.500976562 457.05078125 l 1
 238.157226562 457.05078125 240.500976562 440.6484375 240.500976562 407.009765625 c 2
 240.500976562 403.005859375 l 1
 240.500976562 291.79296875 l 1
 230.954101562 291.810546875 221.408203125 291.860351562 211.864257812 291.537109375 c 1
 202.865234375 408.840820312 158.19921875 502 104.413085938 502 c 0
130.551757812 267.82421875 m 1
 130.614257812 262.572265625 130.723632812 257.494140625 130.723632812 252 c 0
 130.723632812 79.2060546875 119.23046875 42 94.5830078125 42 c 0
 59.431640625 42 37.7607421875 252 130.551757812 267.82421875 c 1
EndSplineSet
EndChar

StartChar: 
Encoding: 122 122 24
Width: 432
VWidth: 752
Flags: HW
LayerCount: 2
Fore
SplineSet
140 502 m 1
 50 481.009765625 l 1
 5 470.05078125 l 1
 5 457.05078125 l 1
 47.6572265625 457.05078125 50 440.6484375 50 407.009765625 c 2
 50 2 l 1
 140 2 l 1
 263.5 400.294921875 l 1
 263.5 95 l 2
 263.5 51.5 288.204101562 2 338.935546875 2 c 0
 399.286132812 2 419.208984375 64.05859375 427.5 95 c 1
 417.5 107 l 1
 399.888671875 60.078125 374.865234375 55.751953125 362.775390625 66.33203125 c 0
 352.293945312 75.50390625 353.5 95.69921875 353.5 111.263671875 c 2
 353.5 502 l 1
 263.5 502 l 1
 140 103.705078125 l 1
 140 502 l 1
110.744140625 -76.251953125 m 1
 114.504882812 -131.266601562 160.321289062 -174.900390625 216.25 -175.04296875 c 0
 272.178710938 -174.900390625 317.995117188 -131.266601562 321.755859375 -76.251953125 c 1
 321.748046875 -76.3447265625 308.037109375 -76.251953125 308.037109375 -76.251953125 c 1
 301.58984375 -100.88671875 262.926757812 -119.900390625 216.25 -119.91796875 c 0
 169.57421875 -119.899414062 130.912109375 -100.88671875 124.46484375 -76.251953125 c 1
 124.469726562 -76.3037109375 110.744140625 -76.251953125 110.744140625 -76.251953125 c 1
EndSplineSet
Validated: 2621481
EndChar

StartChar: 
Encoding: 92 92 25
Width: 472
VWidth: 752
Flags: HW
LayerCount: 2
Fore
SplineSet
270.74609375 753.3046875 m 1
 180.74609375 732.314453125 l 1
 135.74609375 721.353515625 l 1
 135.74609375 708.353515625 l 1
 178.403320312 708.353515625 180.74609375 691.952148438 180.74609375 658.314453125 c 2
 180.74609375 597.912109375 l 1
 81.08984375 597.912109375 l 1
 81.08984375 569.626953125 l 1
 180.74609375 569.626953125 l 1
 180.74609375 502.4375 l 1
 143.940429688 502.2421875 103.688476562 502 81.08984375 502 c 1
 81.08984375 469.501953125 l 1
 180.74609375 469.501953125 l 1
 180.74609375 3.3046875 l 1
 270.74609375 3.3046875 l 1
 270.74609375 16.408203125 l 1
 287 7.103515625 304.763671875 2 323.854492188 2 c 0
 405.696289062 2 465.013671875 52.77734375 466.98828125 139.724609375 c 2
 466.98828125 410.3046875 l 2
 466.98828125 453.8046875 439.6875 503.3046875 362.123046875 503.3046875 c 0
 346.1171875 503.3046875 306.368164062 503.05859375 270.74609375 502.85546875 c 1
 270.74609375 569.626953125 l 1
 457.57421875 569.626953125 l 1
 457.57421875 597.912109375 l 1
 270.74609375 597.912109375 l 1
 270.74609375 753.3046875 l 1
270.74609375 469.501953125 m 1
 328.197265625 469.501953125 l 2
 355.985351562 469.501953125 372.322265625 439.809570312 376.98828125 394.041015625 c 1
 376.98828125 141.87109375 l 1
 376.98828125 139.724609375 l 1
 376.994140625 139.724609375 l 1
 377.581054688 60.7451171875 348.388671875 39 322.609375 39 c 0
 310.018554688 39 291.119140625 38.94140625 270.74609375 49.5859375 c 1
 270.74609375 469.501953125 l 1
77.2109375 345.560546875 m 1
 73.5302734375 345.712890625 69.728515625 345.55078125 65.810546875 345.04296875 c 2
 65.80859375 345.04296875 l 2
 32.224609375 345.041992188 4.9990234375 317.815429688 5 284.23046875 c 0
 5.0009765625 250.645507812 32.2265625 223.419921875 65.810546875 223.419921875 c 0
 74.2021484375 223.741210938 83.0576171875 225.076171875 90.7109375 228.75 c 0
 110.138671875 240.377929688 116.37890625 228.625 117.34375 223.419921875 c 0
 123.926757812 187.904296875 83.9619140625 81.56640625 20.443359375 81.56640625 c 1
 30.7734375 63.677734375 l 1
 110.306640625 63.677734375 156.798828125 169.788085938 156.798828125 223.419921875 c 1
 160.833984375 269.946289062 132.431640625 343.270507812 77.2109375 345.560546875 c 1
EndSplineSet
EndChar

StartChar: 
Encoding: 58 58 26
Width: 310
VWidth: 752
Flags: HW
LayerCount: 2
Fore
SplineSet
8.5146484375 502 m 1
 8.5146484375 473.71484375 l 1
 193.684570312 473.71484375 l 1
 5 2 l 1
 105 2 l 1
 105.001953125 2.00390625 l 1
 105.001953125 2 l 1
 301.486328125 2 l 1
 301.486328125 30.28515625 l 1
 116.314453125 30.28515625 l 1
 305 502 l 1
 205.001953125 502 l 1
 8.5146484375 502 l 1
EndSplineSet
Validated: 2621449
EndChar

StartChar: 
Encoding: 39 39 27
Width: 190
VWidth: 752
Flags: HW
LayerCount: 2
Fore
SplineSet
5 556 m 1
 90.2548828125 694.676757812 l 1
 185 694.676757812 l 1
 31.49609375 556 l 1
 5 556 l 1
EndSplineSet
Validated: 2621441
EndChar

StartChar: 
Encoding: 94 94 28
Width: 275
VWidth: 752
Flags: HW
LayerCount: 2
Fore
SplineSet
90.255859375 694.67578125 m 1
 5 556 l 1
 31.49609375 556 l 1
 137.626953125 651.87890625 l 1
 243.759765625 556 l 1
 270.255859375 556 l 1
 185 694.67578125 l 1
 90.255859375 694.67578125 l 1
EndSplineSet
Validated: 2621449
EndChar

StartChar: 
Encoding: 33 33 29
Width: 346
VWidth: 752
Flags: HW
LayerCount: 2
Fore
SplineSet
340.04296875 752 m 1
 250.04296875 731.009765625 l 1
 205.04296875 720.05078125 l 1
 205.04296875 707.05078125 l 1
 247.69921875 707.05078125 250.04296875 690.6484375 250.04296875 657.009765625 c 2
 250.04296875 502.865234375 l 1
 250.04296875 403.87109375 l 1
 250.04296875 252 l 1
 250.04296875 112.12890625 l 2
 250.04296875 96.564453125 251.249023438 76.369140625 240.767578125 67.197265625 c 0
 228.677734375 56.6171875 203.653320312 60.943359375 186.04296875 107.865234375 c 1
 176.04296875 95.865234375 l 1
 184.333007812 64.923828125 204.258789062 2.865234375 264.608398438 2.865234375 c 0
 315.33984375 2.865234375 340.04296875 52.365234375 340.04296875 95.865234375 c 1
 340.40625 94.9560546875 341.461914062 332.451171875 340.04296875 403.87109375 c 2
 340.04296875 407.875 l 1
 340.04296875 481.875 l 1
 340.04296875 752 l 1
140 630.4140625 m 1
 50 609.42578125 l 1
 5 598.46484375 l 1
 5 585.46484375 l 1
 47.65625 585.46484375 50 569.063476562 50 535.42578125 c 2
 50 230.4140625 l 1
 50 209.42578125 l 1
 140 230.4140625 l 1
 140 609.42578125 l 1
 140 630.4140625 l 1
EndSplineSet
Validated: 2621481
EndChar

StartChar: 
Encoding: 48 48 30
Width: 310
VWidth: 752
Flags: HW
LayerCount: 2
Fore
SplineSet
5 502 m 1
 205 2 l 1
 305 2 l 1
 105 502 l 1
 5 502 l 1
EndSplineSet
Validated: 2097161
EndChar

StartChar: 
Encoding: 49 49 31
Width: 145
VWidth: 752
Flags: HW
LayerCount: 2
Fore
SplineSet
140 752 m 1
 50 731.009765625 l 1
 5 720.05078125 l 1
 5 707.05078125 l 1
 47.6572265625 707.05078125 50 690.6484375 50 657.009765625 c 2
 50 252 l 1
 50 -248 l 1
 140 -227.009765625 l 1
 140 252 l 1
 140 752 l 1
EndSplineSet
Validated: 2621449
EndChar

StartChar: 
Encoding: 50 50 32
Width: 362
VWidth: 752
Flags: HW
LayerCount: 2
Fore
SplineSet
357.4140625 752 m 1
 267.4140625 731.009765625 l 1
 222.4140625 720.05078125 l 1
 222.4140625 707.05078125 l 1
 265.071289062 707.05078125 267.4140625 690.6484375 267.4140625 657.009765625 c 2
 267.4140625 252 l 1
 267.4140625 -248 l 1
 357.4140625 -227.009765625 l 1
 357.4140625 252 l 1
 357.4140625 752 l 1
140 559.990234375 m 1
 50 539 l 1
 5 528.0390625 l 1
 5 515.0390625 l 1
 47.6572265625 515.0390625 50 498.637695312 50 465 c 2
 50 59.990234375 l 1
 50 2 l 1
 140 22.990234375 l 1
 140 502 l 1
 140 559.990234375 l 1
EndSplineSet
Validated: 2621449
EndChar

StartChar: 
Encoding: 51 51 33
Width: 498
VWidth: 752
Flags: HW
LayerCount: 2
Fore
SplineSet
492.923828125 752 m 1
 402.923828125 731.009765625 l 1
 357.923828125 720.05078125 l 1
 357.923828125 707.05078125 l 1
 400.580078125 707.05078125 402.923828125 690.6484375 402.923828125 657.009765625 c 2
 402.923828125 252 l 1
 402.923828125 -248 l 1
 492.923828125 -227.009765625 l 1
 492.923828125 252 l 1
 492.923828125 752 l 1
140 559.990234375 m 1
 50 539 l 1
 5 528.0390625 l 1
 5 515.0390625 l 1
 47.6572265625 515.0390625 50 498.637695312 50 465 c 2
 50 59.990234375 l 1
 50 2 l 1
 140 22.990234375 l 1
 140 502 l 1
 140 559.990234375 l 1
315.509765625 559.990234375 m 1
 225.509765625 539 l 1
 180.509765625 528.0390625 l 1
 180.509765625 515.0390625 l 1
 223.166015625 515.0390625 225.509765625 498.637695312 225.509765625 465 c 2
 225.509765625 59.990234375 l 1
 225.509765625 2 l 1
 315.509765625 22.990234375 l 1
 315.509765625 502 l 1
 315.509765625 559.990234375 l 1
EndSplineSet
Validated: 2621449
EndChar

StartChar: 
Encoding: 52 52 34
Width: 426
VWidth: 752
Flags: HW
LayerCount: 2
Fore
SplineSet
276.306640625 752 m 1
 184.751953125 448.576171875 l 1
 5 639.724609375 l 1
 5 582.4296875 l 1
 171.662109375 405.19921875 l 1
 50 2 l 1
 150 2 l 1
 247.369140625 324.69140625 l 1
 421.30859375 139.724609375 l 1
 421.30859375 197.021484375 l 1
 260.458984375 368.0703125 l 1
 376.306640625 752 l 1
 276.306640625 752 l 1
EndSplineSet
Validated: 2621449
EndChar

StartChar: 
Encoding: 53 53 35
Width: 332
VWidth: 752
Flags: HW
LayerCount: 2
Fore
SplineSet
5 424.501953125 m 1
 5 334.501953125 l 1
 327 334.501953125 l 1
 327 424.501953125 l 1
 5 424.501953125 l 1
EndSplineSet
Validated: 2621441
EndChar

StartChar: 
Encoding: 54 54 36
Width: 418
VWidth: 752
Flags: HW
LayerCount: 2
Fore
SplineSet
254 752 m 1
 164 731.009765625 l 1
 119 720.05078125 l 1
 119 707.05078125 l 1
 161.65625 707.05078125 164 690.6484375 164 657.009765625 c 2
 164 417 l 1
 5 417 l 1
 5 372 l 1
 164 372 l 1
 164 252 l 1
 164 2 l 1
 254 22.990234375 l 1
 254 252 l 1
 254 372 l 1
 413 372 l 1
 413 417 l 1
 254 417 l 1
 254 752 l 1
EndSplineSet
Validated: 2621449
EndChar

StartChar: 
Encoding: 55 55 37
Width: 492
VWidth: 752
Flags: HW
LayerCount: 2
Fore
SplineSet
382.4140625 752 m 1
 292.4140625 731.009765625 l 1
 247.4140625 720.05078125 l 1
 247.4140625 707.05078125 l 1
 290.071289062 707.05078125 292.4140625 690.6484375 292.4140625 657.009765625 c 2
 292.4140625 417 l 1
 205 417 l 1
 205 669.990234375 l 1
 115 649 l 1
 70 638.0390625 l 1
 70 625.0390625 l 1
 112.657226562 625.0390625 115 608.637695312 115 575 c 2
 115 417 l 1
 5 417 l 1
 5 372 l 1
 115 372 l 1
 115 169.990234375 l 1
 115 112 l 1
 205 132.990234375 l 1
 205 169.990234375 l 1
 205 372 l 1
 292.4140625 372 l 1
 292.4140625 252 l 1
 292.4140625 2 l 1
 382.4140625 22.990234375 l 1
 382.4140625 252 l 1
 382.4140625 372 l 1
 487 372 l 1
 487 417 l 1
 382.4140625 417 l 1
 382.4140625 752 l 1
EndSplineSet
Validated: 2621449
EndChar

StartChar: 
Encoding: 56 56 38
Width: 652
VWidth: 752
Flags: HW
LayerCount: 2
Fore
SplineSet
549.755859375 752 m 1
 459.755859375 731.009765625 l 1
 414.755859375 720.05078125 l 1
 414.755859375 707.05078125 l 1
 457.413085938 707.05078125 459.755859375 690.6484375 459.755859375 657.009765625 c 2
 459.755859375 417 l 1
 372.341796875 417 l 1
 372.341796875 669.990234375 l 1
 282.341796875 649 l 1
 237.341796875 638.0390625 l 1
 237.341796875 625.0390625 l 1
 279.999023438 625.0390625 282.341796875 608.637695312 282.341796875 575 c 2
 282.341796875 417 l 1
 194.927734375 417 l 1
 194.927734375 669.990234375 l 1
 104.927734375 649 l 1
 59.927734375 638.0390625 l 1
 59.927734375 625.0390625 l 1
 102.584960938 625.0390625 104.927734375 608.637695312 104.927734375 575 c 2
 104.927734375 417 l 1
 5 417 l 1
 5 372 l 1
 104.927734375 372 l 1
 104.927734375 169.990234375 l 1
 104.927734375 112 l 1
 194.927734375 132.990234375 l 1
 194.927734375 169.990234375 l 1
 194.927734375 372 l 1
 282.341796875 372 l 1
 282.341796875 169.990234375 l 1
 282.341796875 112 l 1
 372.341796875 132.990234375 l 1
 372.341796875 169.990234375 l 1
 372.341796875 372 l 1
 459.755859375 372 l 1
 459.755859375 252 l 1
 459.755859375 2 l 1
 549.755859375 22.990234375 l 1
 549.755859375 252 l 1
 549.755859375 372 l 1
 647 372 l 1
 647 417 l 1
 549.755859375 417 l 1
 549.755859375 752 l 1
EndSplineSet
Validated: 2621449
EndChar

StartChar: 
Encoding: 57 57 39
Width: 382
VWidth: 752
Flags: HW
LayerCount: 2
Fore
SplineSet
5 752 m 1
 5 713.724609375 l 1
 265.134765625 713.724609375 l 1
 170.90234375 401.43359375 l 1
 5.376953125 577.3046875 l 1
 5.376953125 520.0078125 l 1
 157.810546875 358.046875 l 1
 50.375 2 l 1
 150.375 2 l 1
 233.533203125 277.591796875 l 1
 363.685546875 139.3046875 l 1
 363.685546875 196.599609375 l 1
 246.625 320.9765625 l 1
 376.68359375 752 l 1
 345 752 l 1
 5 752 l 1
EndSplineSet
Validated: 2621449
EndChar

StartChar: 
Encoding: 256 8557 40
Width: 412
VWidth: 842
Flags: HW
LayerCount: 2
Fore
SplineSet
252.287109375 842 m 1
 162.287109375 821.009765625 l 1
 117.287109375 810.05078125 l 1
 117.287109375 797.05078125 l 1
 159.944335938 797.05078125 162.287109375 780.647460938 162.287109375 747.009765625 c 2
 162.287109375 739.048828125 l 1
 18.740234375 739.048828125 l 1
 18.740234375 706.55078125 l 1
 162.287109375 706.55078125 l 1
 162.287109375 592 l 1
 5 592 l 1
 5 559.501953125 l 1
 407 559.501953125 l 1
 407 592 l 1
 252.287109375 592 l 1
 252.287109375 706.55078125 l 1
 393.259765625 706.55078125 l 1
 393.259765625 739.048828125 l 1
 252.287109375 739.048828125 l 1
 252.287109375 842 l 1
59.515625 492 m 1
 59.515625 463.71484375 l 1
 133.515625 463.71484375 l 1
 241.857421875 463.71484375 l 1
 56 92 l 1
 156 92 l 1
 352.484375 92 l 1
 352.484375 120.28515625 l 1
 278.484375 120.28515625 l 1
 170.142578125 120.28515625 l 1
 356 492 l 1
 256 492 l 1
 59.515625 492 l 1
EndSplineSet
Validated: 2621449
EndChar

StartChar: quotedbl
Encoding: 34 34 42
Width: 251
VWidth: 774
Flags: HW
LayerCount: 2
Fore
SplineSet
192 749 m 128
 206.666992188 749 219.333007812 742.166992188 230 728.5 c 128
 240.666992188 714.833007812 246 698.666992188 246 680 c 0
 246 678 245.666992188 676 245 674 c 0
 245 669.333007812 244.666992188 665 244 661 c 0
 238.666992188 629.666992188 224.666992188 576 202 500 c 1
 182 500 l 1
 159.333007812 576 145.333007812 629.666992188 140 661 c 0
 139.333007812 665 138.666992188 669.333007812 138 674 c 0
 138 677 138 677 138 680 c 0
 138 698.666992188 143.333007812 714.833007812 154 728.5 c 128
 164.666992188 742.166992188 177.333007812 749 192 749 c 128
59 749 m 128
 73.6669921875 749 86.3330078125 742.166992188 97 728.5 c 128
 107.666992188 714.833007812 113 698.666992188 113 680 c 0
 113 678 112.666992188 676 112 674 c 0
 112 669.333007812 111.666992188 665 111 661 c 0
 105.666992188 629.666992188 91.6669921875 576 69 500 c 1
 49 500 l 1
 26.3330078125 576 12.3330078125 629.666992188 7 661 c 0
 6.3330078125 665 5.6669921875 669.333007812 5 674 c 0
 5 677 5 677 5 679 c 2
 5 680 l 2
 5 698.666992188 10.3330078125 714.833007812 21 728.5 c 128
 31.6669921875 742.166992188 44.3330078125 749 59 749 c 128
EndSplineSet
Validated: 524289
EndChar

StartChar: parenleft
Encoding: 40 40 43
Width: 269
VWidth: 774
Flags: HW
LayerCount: 2
Fore
SplineSet
264 750 m 1
 264 731 l 1
 239.333007812 731 214.333007812 706.166992188 189 656.5 c 128
 163.666992188 606.833007812 143 544.333007812 127 469 c 128
 111 393.666992188 103 320.666992188 103 250 c 128
 103 179.333007812 111 106.333007812 127 31 c 128
 143 -44.3330078125 163.666992188 -106.833007812 189 -156.5 c 128
 214.333007812 -206.166992188 239.333007812 -231 264 -231 c 1
 264 -250 l 1
 230 -250 197.166992188 -237.333007812 165.5 -212 c 128
 133.833007812 -186.666992188 105.666992188 -150.666992188 81 -104 c 0
 30.3330078125 -6 5 112 5 250 c 128
 5 388 30.3330078125 506 81 604 c 0
 105.666992188 650.666992188 133.833007812 686.666992188 165.5 712 c 128
 197.166992188 737.333007812 230 750 264 750 c 1
EndSplineSet
Validated: 524289
EndChar

StartChar: parenright
Encoding: 41 41 44
Width: 269
VWidth: 774
Flags: HW
LayerCount: 2
Fore
SplineSet
5 750 m 1
 39.6669921875 750 72.8330078125 737.333007812 104.5 712 c 128
 136.166992188 686.666992188 164 650.666992188 188 604 c 0
 238.666992188 506 264 388 264 250 c 128
 264 112 238.666992188 -6 188 -104 c 0
 164 -150.666992188 136.166992188 -186.666992188 104.5 -212 c 128
 72.8330078125 -237.333007812 39.6669921875 -250 5 -250 c 1
 5 -231 l 1
 29.6669921875 -231 54.6669921875 -206.166992188 80 -156.5 c 128
 105.333007812 -106.833007812 126.166992188 -44.3330078125 142.5 31 c 128
 158.833007812 106.333007812 167 179.333007812 167 250 c 128
 167 320.666992188 158.833007812 393.666992188 142.5 469 c 128
 126.166992188 544.333007812 105.333007812 606.833007812 80 656.5 c 128
 54.6669921875 706.166992188 29.6669921875 731 5 731 c 1
 5 750 l 1
EndSplineSet
Validated: 524289
EndChar

StartChar: plus
Encoding: 43 43 45
Width: 330
VWidth: 774
Flags: HW
LayerCount: 2
Fore
SplineSet
120 360 m 1
 210 360 l 1
 210 168 l 1
 325 168 l 1
 325 140 l 1
 210 140 l 1
 120 140 l 1
 5 140 l 1
 5 168 l 1
 120 168 l 1
 120 360 l 1
EndSplineSet
Validated: 1
EndChar

StartChar: comma
Encoding: 44 44 46
Width: 162
VWidth: 774
Flags: HW
LayerCount: 2
Fore
SplineSet
77 122 m 0
 101 121.333007812 120.333007812 108.833007812 135 84.5 c 128
 149.666992188 60.1669921875 157 35 157 9 c 0
 157 4 157 4 157 0 c 0
 157 -19.3330078125 152.166992188 -41 142.5 -65 c 128
 132.833007812 -89 118 -110.833007812 98 -130.5 c 128
 78 -150.166992188 55.6669921875 -160 31 -160 c 1
 20 -142 l 1
 38.6669921875 -142 55.8330078125 -133.666992188 71.5 -117 c 128
 87.1669921875 -100.333007812 98.8330078125 -81.8330078125 106.5 -61.5 c 128
 114.166992188 -41.1669921875 118 -23.6669921875 118 -9 c 0
 118 -5.6669921875 117.666992188 -2.6669921875 117 0 c 0
 115.666992188 6.6669921875 111.666992188 10 105 10 c 0
 101 10 96.3330078125 8.3330078125 91 5 c 0
 84.3330078125 2.3330078125 76 0.6669921875 66 0 c 0
 48.6669921875 0 34.1669921875 6 22.5 18 c 128
 10.8330078125 30 5 44.3330078125 5 61 c 128
 5 77.6669921875 10.8330078125 92 22.5 104 c 128
 34.1669921875 116 48.6669921875 122 66 122 c 0
 71 122 71 122 77 122 c 0
EndSplineSet
Validated: 524289
EndChar

StartChar: hyphen
Encoding: 45 45 47
Width: 218
VWidth: 774
Flags: HW
LayerCount: 2
Fore
SplineSet
5 322 m 1
 213 322 l 1
 213 274 l 1
 5 274 l 1
 5 322 l 1
EndSplineSet
Validated: 1
EndChar

StartChar: period
Encoding: 46 46 48
Width: 132
VWidth: 774
Flags: HW
LayerCount: 2
Fore
SplineSet
127 61 m 128
 127 44.3330078125 121 30 109 18 c 128
 97 6 82.6669921875 0 66 0 c 128
 49.3330078125 0 35 6 23 18 c 128
 11 30 5 44.3330078125 5 61 c 128
 5 77.6669921875 11 92 23 104 c 128
 35 116 49.3330078125 122 66 122 c 128
 82.6669921875 122 97 116 109 104 c 128
 121 92 127 77.6669921875 127 61 c 128
EndSplineSet
Validated: 524289
EndChar

StartChar: slash
Encoding: 47 47 49
Width: 376
VWidth: 774
Flags: HW
LayerCount: 2
Fore
SplineSet
331 749 m 1
 371 749 l 1
 45 -250 l 1
 5 -250 l 1
 331 749 l 1
EndSplineSet
Validated: 1
EndChar

StartChar: equal
Encoding: 61 61 50
Width: 310
VWidth: 774
Flags: HW
LayerCount: 2
Fore
SplineSet
9 360 m 1
 205 360 l 1
 305 360 l 1
 131 168 l 1
 301 168 l 1
 301 140 l 1
 105 140 l 1
 5 140 l 1
 179 332 l 1
 9 332 l 1
 9 360 l 1
EndSplineSet
Validated: 1
EndChar

StartChar: question
Encoding: 63 63 51
Width: 381
VWidth: 774
Flags: HW
LayerCount: 2
Fore
SplineSet
41 750 m 1
 332 750 l 1
 332 712 l 1
 326 703.333007812 318 691.666992188 308 677 c 128
 298 662.333007812 279.833007812 633.833007812 253.5 591.5 c 128
 227.166992188 549.166992188 204.166992188 508.833007812 184.5 470.5 c 128
 164.833007812 432.166992188 146.833007812 390 130.5 344 c 128
 114.166992188 298 106 259.333007812 106 228 c 0
 106 186.666992188 116.333007812 150.833007812 137 120.5 c 128
 157.666992188 90.1669921875 183 75 213 75 c 0
 225 75 235 75.5 243 76.5 c 128
 251 77.5 260.333007812 79.6669921875 271 83 c 128
 281.666992188 86.3330078125 290.666992188 91.8330078125 298 99.5 c 128
 305.333007812 107.166992188 312.833007812 117.166992188 320.5 129.5 c 128
 328.166992188 141.833007812 334.833007812 158.166992188 340.5 178.5 c 128
 346.166992188 198.833007812 350.666992188 222.666992188 354 250 c 1
 376 250 l 1
 368.666992188 83.3330078125 308.666992188 0 196 0 c 0
 170 0 145.833007812 3.3330078125 123.5 10 c 128
 101.166992188 16.6669921875 81 27 63 41 c 128
 45 55 30.8330078125 74.3330078125 20.5 99 c 128
 10.1669921875 123.666992188 5 152.666992188 5 186 c 0
 5 310.666992188 76.3330078125 486 219 712 c 1
 115 712 l 2
 104.333007812 712 96.3330078125 711.5 91 710.5 c 128
 85.6669921875 709.5 79.6669921875 707.166992188 73 703.5 c 128
 66.3330078125 699.833007812 61.5 693.333007812 58.5 684 c 128
 55.5 674.666992188 54 662.333007812 54 647 c 1
 41 647 l 1
 41 712 l 1
 41 750 l 1
EndSplineSet
Validated: 524289
EndChar

StartChar: A
Encoding: 65 65 52
Width: 378
VWidth: 752
Flags: HW
LayerCount: 2
Fore
SplineSet
225.390625 505.92578125 m 0
 192.615234375 505.889648438 163.524414062 496.0546875 140 479.8359375 c 1
 140 502 l 1
 50 481.009765625 l 1
 5 470.05078125 l 1
 5 457.05078125 l 1
 47.6572265625 457.05078125 50 440.6484375 50 407.009765625 c 2
 50 2 l 1
 140 2 l 1
 140 32.744140625 l 1
 163.5234375 13.146484375 192.086914062 1.0439453125 225.390625 2 c 0
 307.10546875 2 373.349609375 54.2138671875 373.349609375 164 c 0
 373.349609375 226.696289062 332.251953125 264.698242188 282.2265625 284.51171875 c 1
 332.252929688 297.873046875 373.349609375 327.229492188 373.349609375 389.92578125 c 0
 373.349609375 473.548828125 307.10546875 505.92578125 225.390625 505.92578125 c 0
205.267578125 472.318359375 m 0
 235.129882812 472.318359375 279 473.182617188 279 389.92578125 c 0
 279 318.157226562 233.482421875 301.525390625 190.224609375 301.92578125 c 1
 190.88671875 292.610351562 190.52734375 283.31640625 190.224609375 274 c 1
 227.658203125 274.376953125 279 224.813476562 279 152 c 0
 279 91.2431640625 235.129882812 67.607421875 205.267578125 67.607421875 c 0
 179.38671875 67.087890625 157.936523438 75.6650390625 140 89.349609375 c 1
 140 448.158203125 l 1
 159.259765625 463.334960938 182.008789062 472.78515625 205.267578125 472.318359375 c 0
EndSplineSet
Validated: 524329
EndChar

StartChar: B
Encoding: 66 66 53
Width: 396
VWidth: 752
Flags: HW
LayerCount: 2
Fore
SplineSet
140 752 m 1
 50 731.009765625 l 1
 5 720.05078125 l 1
 5 707.05078125 l 1
 47.6572265625 707.05078125 50 690.6484375 50 657.009765625 c 2
 50 252 l 1
 50 235.736328125 l 2
 50 192.236328125 58.9150390625 2 211.43359375 2 c 0
 336.142578125 2 390.849609375 110.953125 390.849609375 264.990234375 c 0
 390.849609375 402.052734375 270.284179688 566 140 478 c 1
 140 752 l 1
200.9921875 470.337890625 m 0
 266.49609375 466.336914062 305.466796875 355.131835938 305.466796875 261.904296875 c 0
 305.466796875 139.725585938 264.275390625 55.4873046875 221.359375 54.89453125 c 0
 141.579101562 53.7919921875 140 252 140 252 c 1
 140 445.736328125 l 1
 162.228515625 464.173828125 182.651367188 471.458007812 200.9921875 470.337890625 c 0
EndSplineSet
Validated: 524329
EndChar

StartChar: C
Encoding: 67 67 54
Width: 330
VWidth: 752
Flags: HW
LayerCount: 2
Fore
SplineSet
176.828125 502 m 0
 89.4130859375 501.854492188 32.609375 427.01171875 32.609375 380.002929688 c 1
 46.16796875 368.2890625 l 1
 46.16796875 426.6328125 109.043945312 461.15625 156.705078125 459.724609375 c 0
 186.567382812 459.724609375 230.4375 456.943359375 230.4375 332.395507812 c 0
 230.4375 225.033203125 184.919921875 166.153320312 141.662109375 166.751953125 c 1
 142.32421875 152.817382812 141.96484375 160.913085938 141.662109375 146.9765625 c 1
 179.095703125 147.541015625 230.4375 107.724609375 230.4375 -29.5283203125 c 0
 230.4375 -120.41796875 199.6015625 -183.775390625 156.705078125 -183.775390625 c 0
 100.078125 -185.475585938 44.4599609375 -128.482421875 21.134765625 -61.3291015625 c 1
 5 -63.4443359375 l 1
 24.3056640625 -174.107421875 93.91015625 -251.483398438 176.828125 -247.920898438 c 0
 296.139648438 -247.920898438 324.787109375 -126.767578125 324.787109375 -30.1796875 c 0
 324.787109375 86.28125 283.69140625 123.0625 233.666015625 152.702148438 c 1
 283.692382812 172.689453125 324.787109375 238.60546875 324.787109375 332.395507812 c 0
 324.787109375 457.4921875 258.54296875 502 176.828125 502 c 0
EndSplineSet
Validated: 524329
EndChar

StartChar: D
Encoding: 68 68 55
Width: 639
VWidth: 752
Flags: HW
LayerCount: 2
Fore
SplineSet
140 502 m 1
 50 481.009765625 l 1
 5 470.05078125 l 1
 5 457.05078125 l 1
 47.6572265625 457.05078125 50 440.6484375 50 407.009765625 c 2
 50 403.005859375 l 1
 50 95 l 2
 50 51.5 77.30078125 2 154.865234375 2 c 0
 201.366210938 2 237.321289062 33.572265625 259.998046875 95 c 1
 259.998046875 51.5 287.298828125 2 364.86328125 2 c 0
 411.364257812 2 447.321289062 33.572265625 469.998046875 95 c 1
 469.998046875 51.5 494.702148438 2 545.43359375 2 c 0
 605.784179688 2 625.70703125 64.05859375 633.998046875 95 c 1
 623.998046875 107 l 1
 606.38671875 60.078125 581.36328125 55.751953125 569.2734375 66.33203125 c 0
 558.791992188 75.50390625 559.998046875 95.69921875 559.998046875 111.263671875 c 2
 559.998046875 403.005859375 l 1
 559.998046875 502 l 1
 469.998046875 481.009765625 l 1
 424.998046875 470.05078125 l 1
 424.998046875 457.05078125 l 1
 467.655273438 457.05078125 469.998046875 440.6484375 469.998046875 407.009765625 c 2
 469.998046875 403.005859375 l 1
 469.998046875 137 l 1
 469.998046875 137 435.236328125 54.89453125 398.7890625 54.89453125 c 0
 371.000976562 54.89453125 354.6640625 65.4951171875 349.998046875 111.263671875 c 1
 349.998046875 403.005859375 l 1
 349.998046875 502 l 1
 259.998046875 481.009765625 l 1
 214.998046875 470.05078125 l 1
 214.998046875 457.05078125 l 1
 257.655273438 457.05078125 259.998046875 440.6484375 259.998046875 407.009765625 c 2
 259.998046875 403.005859375 l 1
 259.998046875 137 l 1
 259.998046875 137 225.236328125 54.89453125 188.7890625 54.89453125 c 0
 161.000976562 54.89453125 144.666015625 65.4951171875 140 111.263671875 c 1
 140 403.005859375 l 1
 140 502 l 1
EndSplineSet
Validated: 524329
EndChar

StartChar: E
Encoding: 69 69 56
Width: 429
VWidth: 752
Flags: HW
LayerCount: 2
Fore
SplineSet
140 502 m 1
 50 481.009765625 l 1
 5 470.05078125 l 1
 5 457.05078125 l 1
 47.6572265625 457.05078125 50 440.6484375 50 407.009765625 c 2
 50 403.005859375 l 1
 50 95 l 2
 50 51.5 77.30078125 2 154.865234375 2 c 0
 201.366210938 2 237.323242188 33.572265625 260 95 c 1
 260 51.5 284.702148438 2 335.43359375 2 c 0
 395.784179688 2 415.708984375 64.05859375 424 95 c 1
 414 107 l 1
 396.388671875 60.078125 371.365234375 55.751953125 359.275390625 66.33203125 c 0
 348.793945312 75.50390625 350 95.69921875 350 111.263671875 c 2
 350 403.005859375 l 1
 350 502 l 1
 260 481.009765625 l 1
 215 470.05078125 l 1
 215 457.05078125 l 1
 257.657226562 457.05078125 260 440.6484375 260 407.009765625 c 2
 260 403.005859375 l 1
 260 137 l 1
 260 137 225.23828125 54.89453125 188.791015625 54.89453125 c 0
 161.002929688 54.89453125 144.666015625 65.4951171875 140 111.263671875 c 1
 140 403.005859375 l 1
 140 502 l 1
EndSplineSet
Validated: 524329
EndChar

StartChar: F
Encoding: 70 70 57
Width: 474
VWidth: 752
Flags: HW
LayerCount: 2
Fore
SplineSet
127.158203125 502 m 2
 78.10546875 502 5.158203125 469.501953125 5.158203125 381 c 2
 5.158203125 2 l 1
 95.158203125 2 l 1
 95.158203125 364.736328125 l 2
 95.158203125 499.204101562 175.158203125 510.485351562 175.158203125 364.736328125 c 2
 175.158203125 2 l 1
 265.158203125 2 l 1
 265.158203125 364.736328125 l 2
 265.158203125 510.485351562 345.158203125 499.204101562 345.158203125 364.736328125 c 2
 345.158203125 50 l 2
 341.66015625 -31.6513671875 323.395507812 -111.0625 152.552734375 -129.078125 c 1
 97.03125 -130.737304688 5 -236.7109375 5 -236.7109375 c 1
 13 -244.47265625 l 1
 47.658203125 -200.235351562 121.13671875 -195.084960938 162.536132812 -202.513671875 c 0
 172.598632812 -207.25390625 321.572265625 -245.485351562 331.60546875 -245.185546875 c 0
 387.125976562 -243.526367188 469.158203125 -137.552734375 469.158203125 -137.552734375 c 1
 461.158203125 -129.791015625 l 1
 426.500976562 -174.026367188 371.0234375 -182.1796875 321.625 -171.751953125 c 0
 315.80859375 -169.01171875 263.641601562 -155.125 218.61328125 -143.904296875 c 1
 363.034179688 -127.258789062 429.403320312 -34.650390625 434.76171875 40.18359375 c 1
 435.158203125 40.18359375 l 1
 435.158203125 50 l 1
 435.158203125 381 l 2
 435.158203125 469.501953125 362.2109375 502 313.158203125 502 c 2
 297.158203125 502 l 2
 269.977539062 502 238.921875 486 220.158203125 453.501953125 c 1
 201.395507812 486 170.338867188 502 143.158203125 502 c 2
 127.158203125 502 l 2
EndSplineSet
Validated: 524329
EndChar

StartChar: G
Encoding: 71 71 58
Width: 312
VWidth: 752
Flags: HW
LayerCount: 2
Fore
SplineSet
163 502 m 0
 75.7392578125 502 5 390.071289062 5 252 c 0
 5 113.928710938 75.7392578125 2 163 2 c 0
 226.830078125 2 281.783203125 61.9267578125 306.7109375 148.130859375 c 1
 288.296875 148.130859375 l 1
 235.565429688 61.3359375 197.16015625 76.091796875 179.791015625 76.091796875 c 0
 162.999023438 76.091796875 104.1484375 100.336914062 104.1484375 252 c 0
 104.1484375 264.2578125 104.247070312 274.85546875 104.314453125 285.94140625 c 1
 298.7109375 285.94140625 l 1
 298.7109375 285.990234375 l 1
 299.422851562 285.985351562 299.975585938 285.94140625 300.7109375 285.94140625 c 0
 310.321289062 418.948242188 259.389648438 502 163 502 c 0
151.685546875 469.302734375 m 0
 194.943359375 469.302734375 223.416015625 397.340820312 223.416015625 314.224609375 c 1
 104.544921875 314.224609375 l 1
 106.220703125 425.837890625 114.671875 469.302734375 151.685546875 469.302734375 c 0
50.349609375 -76.251953125 m 1
 54.14453125 -131.766601562 100.211914062 -174.901367188 155.85546875 -175.04296875 c 0
 211.499023438 -174.901367188 257.56640625 -131.766601562 261.361328125 -76.251953125 c 1
 247.642578125 -76.251953125 l 1
 241.087890625 -101.297851562 201.985351562 -119.900390625 155.85546875 -119.91796875 c 0
 109.725585938 -119.900390625 70.625 -101.297851562 64.0703125 -76.251953125 c 1
 50.349609375 -76.251953125 l 1
EndSplineSet
Validated: 524329
EndChar

StartChar: H
Encoding: 72 72 59
Width: 312
VWidth: 752
Flags: HW
LayerCount: 2
Fore
SplineSet
162.999023438 502 m 0
 75.7392578125 502 5 390.071289062 5 252 c 0
 5 113.928710938 75.7392578125 2 162.999023438 2 c 0
 226.830078125 2 281.780273438 61.9267578125 306.708984375 148.130859375 c 1
 288.296875 148.130859375 l 1
 235.56640625 61.3359375 197.161132812 76.091796875 179.791992188 76.091796875 c 0
 162.999023438 76.091796875 104.1484375 100.336914062 104.1484375 252 c 0
 104.1484375 410.250976562 164.415039062 498.092773438 209.663085938 465.509765625 c 0
 254.91015625 432.926757812 205.022460938 398.880859375 218.916992188 363.8515625 c 0
 232.811523438 328.822265625 271.829101562 329.07421875 284.788085938 337.716796875 c 0
 297.747070312 346.359375 299.5 368.310546875 297.287109375 377.534179688 c 0
 286.927734375 454.759765625 237.547851562 502 162.999023438 502 c 0
EndSplineSet
Validated: 524329
EndChar

StartChar: I
Encoding: 73 73 60
Width: 429
VWidth: 752
Flags: HW
LayerCount: 2
Fore
SplineSet
140 502 m 1
 50 481.009765625 l 1
 5 470.05078125 l 1
 5 457.05078125 l 1
 47.6572265625 457.05078125 50 440.6484375 50 407.009765625 c 2
 50 2 l 1
 140 2 l 1
 140 367 l 1
 140 367 174.76171875 449.10546875 211.208984375 449.10546875 c 0
 238.997070312 449.10546875 255.333984375 438.504882812 260 392.736328125 c 1
 260 100.994140625 l 1
 260 95 l 2
 260 51.5 284.702148438 2 335.43359375 2 c 0
 395.784179688 2 415.708984375 64.05859375 424 95 c 1
 414 107 l 1
 396.388671875 60.078125 371.365234375 55.751953125 359.275390625 66.33203125 c 0
 350.982421875 73.5888671875 350.024414062 87.689453125 349.978515625 100.994140625 c 1
 350 100.994140625 l 1
 350 111.263671875 l 1
 350 403.005859375 l 1
 350 409 l 2
 350 452.5 322.69921875 502 245.134765625 502 c 0
 198.633789062 502 162.676757812 470.427734375 140 409 c 1
 140 502 l 1
EndSplineSet
Validated: 524329
EndChar

StartChar: J
Encoding: 74 74 61
Width: 355
VWidth: 752
Flags: HW
LayerCount: 2
Fore
SplineSet
140 502 m 1
 50 481.009765625 l 1
 5 470.05078125 l 1
 5 457.05078125 l 1
 47.6572265625 457.05078125 50 440.6484375 50 407.009765625 c 2
 50 403.005859375 l 1
 50 95 l 2
 50 51.5 77.30078125 2 154.865234375 2 c 0
 201.366210938 2 237.321289062 33.572265625 259.998046875 95 c 1
 259.998046875 -23.736328125 l 2
 259.998046875 -77.3974609375 257.454101562 -221.072265625 188.455078125 -222.046875 c 0
 168.998046875 -225.458984375 155.444335938 -205.509765625 151.71484375 -190.05859375 c 0
 134.959960938 -152.028320312 106.822265625 -153.462890625 87.68359375 -160.173828125 c 0
 40.572265625 -176.693359375 87.744140625 -248 178.220703125 -248 c 0
 349.999023438 -248 349.998046875 -83.5 349.998046875 -40 c 2
 349.998046875 403.005859375 l 1
 349.998046875 502 l 1
 259.998046875 481.009765625 l 1
 214.998046875 470.05078125 l 1
 214.998046875 457.05078125 l 1
 257.655273438 457.05078125 259.998046875 440.6484375 259.998046875 407.009765625 c 2
 259.998046875 403.005859375 l 1
 259.998046875 137 l 1
 259.998046875 137 225.23828125 54.89453125 188.791015625 54.89453125 c 0
 161.002929688 54.89453125 144.666015625 65.4951171875 140 111.263671875 c 1
 140 403.005859375 l 1
 140 502 l 1
EndSplineSet
Validated: 524329
EndChar

StartChar: K
Encoding: 75 75 62
Width: 312
VWidth: 750
Flags: HW
LayerCount: 2
Fore
SplineSet
163 500 m 0
 75.7392578125 500 5 388.071289062 5 250 c 0
 5 111.928710938 75.7392578125 0 163 0 c 0
 226.830078125 0 281.783203125 59.9267578125 306.7109375 146.130859375 c 1
 288.296875 146.130859375 l 1
 235.565429688 59.3359375 197.16015625 74.091796875 179.791015625 74.091796875 c 0
 162.999023438 74.091796875 104.1484375 98.3369140625 104.1484375 250 c 0
 104.1484375 262.2578125 104.247070312 272.85546875 104.314453125 283.94140625 c 1
 298.7109375 283.94140625 l 1
 298.7109375 283.990234375 l 1
 299.422851562 283.985351562 299.975585938 283.94140625 300.7109375 283.94140625 c 0
 310.321289062 416.948242188 259.389648438 500 163 500 c 0
151.685546875 467.302734375 m 0
 194.943359375 467.302734375 223.416015625 395.340820312 223.416015625 312.224609375 c 1
 104.544921875 312.224609375 l 1
 106.220703125 423.837890625 114.671875 467.302734375 151.685546875 467.302734375 c 0
EndSplineSet
Validated: 524329
EndChar

StartChar: L
Encoding: 76 76 63
Width: 314
VWidth: 752
Flags: HW
LayerCount: 2
Fore
SplineSet
160.828125 505.92578125 m 0
 86.2705078125 505.842773438 30.779296875 455.095703125 16.609375 393.673828125 c 1
 30.16796875 385.84375 l 1
 47.3974609375 432.975585938 93.0439453125 473.274414062 140.705078125 472.318359375 c 0
 170.567382812 472.318359375 214.4375 473.182617188 214.4375 389.92578125 c 0
 214.4375 318.157226562 168.919921875 301.525390625 125.662109375 301.92578125 c 1
 126.32421875 292.610351562 125.96484375 283.31640625 125.662109375 274 c 1
 163.095703125 274.376953125 214.4375 224.813476562 214.4375 152 c 0
 214.4375 91.2431640625 170.567382812 67.607421875 140.705078125 67.607421875 c 0
 84.078125 66.470703125 48.4599609375 108.580078125 25.134765625 153.470703125 c 1
 5 152.056640625 l 1
 24.3056640625 78.0810546875 77.91015625 -0.3818359375 160.828125 2 c 0
 242.54296875 2 308.787109375 54.2138671875 308.787109375 164 c 0
 308.787109375 226.696289062 267.69140625 264.698242188 217.666015625 284.51171875 c 1
 267.692382812 297.873046875 308.787109375 327.229492188 308.787109375 389.92578125 c 0
 308.787109375 473.548828125 242.54296875 505.92578125 160.828125 505.92578125 c 0
EndSplineSet
Validated: 524329
EndChar

StartChar: M
Encoding: 77 77 64
Width: 382
VWidth: 752
Flags: HW
LayerCount: 2
Fore
SplineSet
217.952148438 750 m 0
 312.680664062 750 308.967773438 560.125976562 271.107421875 447.208984375 c 1
 271.233398438 447.172851562 l 1
 270.276367188 444.568359375 l 2
 270.110351562 444.084960938 269.969726562 443.545898438 269.802734375 443.065429688 c 2
 264.880859375 428.931640625 l 1
 223.73828125 317.249023438 l 1
 339.508789062 255.834960938 402.912109375 13.896484375 367.47265625 -87.875 c 0
 320.856445312 -221.741210938 234.052734375 -288.978515625 111.336914062 -226.40625 c 0
 -34.8349609375 -151.873046875 7.46484375 10.2080078125 21.9384765625 53.572265625 c 1
 21.7890625 53.615234375 l 1
 22.798828125 56.3583984375 l 2
 22.916015625 56.701171875 23.10546875 57.3984375 23.2177734375 57.720703125 c 2
 28.1416015625 71.8544921875 l 1
 176.319335938 474.088867188 l 2
 235.010742188 625.641601562 238.700195312 712.782226562 216.252929688 718.735351562 c 0
 158.852539062 733.958007812 59.2421875 348.01171875 118.528320312 348.01171875 c 1
 117.973632812 346.76171875 l 1
 108.763671875 325.994140625 l 1
 -39.173828125 325.994140625 45.1044921875 750 217.952148438 750 c 0
212.877929688 287.76953125 m 1
 116.701171875 26.697265625 l 1
 116.701171875 26.697265625 58.2724609375 -146.345703125 137.110351562 -185.41796875 c 0
 179.51953125 -206.435546875 245.546875 -153.89453125 282.520507812 -47.7158203125 c 0
 311.796875 36.3564453125 289.303710938 229.502929688 212.877929688 287.76953125 c 1
EndSplineSet
EndChar

StartChar: N
Encoding: 78 78 65
Width: 549
VWidth: 752
Flags: HW
LayerCount: 2
Fore
SplineSet
140 502 m 1
 50 481.009765625 l 1
 5 470.05078125 l 1
 5 457.05078125 l 1
 47.6572265625 457.05078125 50 440.6484375 50 407.009765625 c 2
 50 403.005859375 l 1
 50 95 l 2
 50 51.5 77.30078125 2 154.865234375 2 c 0
 191.572265625 2 221.673828125 21.755859375 243.89453125 60.2578125 c 1
 265.477539062 15.150390625 319.044921875 2 348.59375 2 c 0
 418.825195312 2 494.685546875 85.91796875 494.685546875 212.462890625 c 1
 511.0625 212.059570312 527.444335938 212.248046875 543.82421875 212.212890625 c 1
 542.90234375 229 l 1
 542.90234375 229 523.959960938 227.213867188 496.033203125 227.90625 c 1
 496.65234375 237.133789062 497 242.497070312 497 252 c 0
 497 390.0703125 436.6171875 502 353.763671875 502 c 0
 258.859375 502 223.4453125 425.150390625 223.4453125 389.869140625 c 1
 223.4453125 389.869140625 217.604492188 257.512695312 400.6953125 218.767578125 c 1
 400.6953125 -17.2626953125 194.741210938 48.771484375 287.107421875 218.0078125 c 1
 276.515625 229.892578125 l 1
 241.938476562 170.00390625 231.645507812 125.153320312 235.240234375 91.76953125 c 1
 222.3359375 72.732421875 205.771484375 54.89453125 188.791015625 54.89453125 c 0
 161.002929688 54.89453125 144.666015625 65.4951171875 140 111.263671875 c 1
 140 403.005859375 l 1
 140 502 l 1
333.46484375 462 m 0
 367.345703125 462 401.3359375 403.663085938 401.3359375 252 c 0
 401.3359375 246.505859375 401.186523438 241.427734375 401.099609375 236.17578125 c 1
 273.545898438 252 255.578125 462 333.46484375 462 c 0
EndSplineSet
Validated: 524329
EndChar

StartChar: O
Encoding: 79 79 66
Width: 357
VWidth: 752
Flags: HW
LayerCount: 2
Fore
SplineSet
138.916992188 502 m 0
 72.5654296875 502 25.6484375 466.614257812 7.2666015625 407.107421875 c 1
 18.5791015625 393.9921875 l 1
 18.5791015625 393.9921875 49.169921875 469.627929688 116.803710938 468.392578125 c 0
 154.4296875 468.392578125 191.854492188 419.462890625 197.137695312 285.232421875 c 1
 -1.30859375 246.487304688 5.0224609375 114.130859375 5.0224609375 114.130859375 c 1
 5.0224609375 78.849609375 43.4072265625 2 146.270507812 2 c 0
 236.072265625 2 301.518554688 113.9296875 301.518554688 252 c 0
 301.518554688 261.502929688 301.142578125 266.866210938 300.471679688 276.09375 c 1
 330.740234375 276.786132812 351.270507812 275 351.270507812 275 c 1
 352.270507812 291.787109375 l 1
 334.516601562 291.751953125 316.760742188 291.940429688 299.010742188 291.537109375 c 1
 285.603515625 408.840820312 219.0546875 502 138.916992188 502 c 0
197.577148438 267.82421875 m 1
 197.670898438 262.572265625 197.833007812 257.494140625 197.833007812 252 c 0
 197.833007812 100.336914062 160.993164062 42 124.270507812 42 c 0
 39.8515625 42 59.326171875 252 197.577148438 267.82421875 c 1
EndSplineSet
EndChar

StartChar: P
Encoding: 80 80 67
Width: 440
VWidth: 752
Flags: HW
LayerCount: 2
Fore
SplineSet
109.25390625 502 m 0
 48.2958984375 502 9.109375 457.823242188 5 394.07421875 c 1
 17.861328125 382.07421875 l 1
 17.861328125 382.07421875 25.6328125 468.793945312 88.9375 468.392578125 c 0
 126.236328125 468.15625 155.423828125 411.624023438 155.423828125 252 c 0
 155.423828125 100.336914062 141.84765625 51 99.60546875 51 c 0
 40.3896484375 51 17.1025390625 93.3046875 16.0390625 148.130859375 c 1
 6.55859375 148.130859375 l 1
 6.7646484375 25.2978515625 71.9287109375 2 107.126953125 2 c 0
 147.163085938 2 210.314453125 52.7197265625 210.314453125 97.322265625 c 1
 210.314453125 55.998046875 271.676757812 2 310.580078125 2 c 0
 369.22265625 2 429.853515625 51.7666015625 429.853515625 148.130859375 c 1
 417.328125 148.130859375 l 1
 417.328125 98.9873046875 377.469726562 50.091796875 326.0078125 50.091796875 c 0
 288.256835938 50.091796875 266.51171875 100.336914062 266.51171875 252 c 0
 266.51171875 410.250976562 306.520507812 490.333984375 342.927734375 466.216796875 c 0
 359.986328125 454.916992188 351.3125 430.380859375 361.951171875 407.8515625 c 0
 377.932617188 374.010742188 410.565429688 373.07421875 422.470703125 381.716796875 c 0
 434.376953125 390.359375 439.288085938 405.927734375 430.5703125 426.12890625 c 0
 421.852539062 446.330078125 392.599609375 502 310.580078125 502 c 0
 271.951171875 502 236.875 475.961914062 210.8671875 433.583984375 c 1
 184.61328125 475.961914062 149.0078125 502 109.25390625 502 c 0
EndSplineSet
Validated: 524329
EndChar

StartChar: Q
Encoding: 81 81 68
Width: 460
VWidth: 752
Flags: HW
LayerCount: 2
Fore
SplineSet
104.411132812 502 m 0
 59.876953125 502 18.9365234375 466.614257812 6.5986328125 407.107421875 c 1
 14.1904296875 393.9921875 l 1
 14.1904296875 393.9921875 44.17578125 469.627929688 89.5693359375 468.392578125 c 0
 114.823242188 468.392578125 130.254882812 432.581054688 130.254882812 285.232421875 c 1
 -2.9375 246.487304688 5.0927734375 114.130859375 5.0927734375 114.130859375 c 1
 5.0927734375 36.5888671875 40.3076171875 2 109.346679688 2 c 0
 171.204101562 2 213.545898438 72.7578125 213.545898438 252 c 0
 213.545898438 261.502929688 213.293945312 266.866210938 212.842773438 276.09375 c 1
 219.643554688 276.325195312 225.327148438 276.240234375 230.391601562 276.076171875 c 1
 230.020507812 268.149414062 229.813476562 260.125 229.813476562 252 c 0
 229.813476562 113.928710938 271.026367188 2 343.420898438 2 c 0
 409.307617188 2 438.267578125 61.9267578125 454.999023438 148.130859375 c 1
 435.079101562 148.130859375 l 1
 399.6875 61.3359375 366.350585938 76.091796875 354.692382812 76.091796875 c 0
 343.421875 76.091796875 309.592773438 100.336914062 309.592773438 252 c 0
 309.592773438 410.250976562 338.760742188 487.487304688 374.741210938 465.509765625 c 0
 410.721679688 443.532226562 382.967773438 398.880859375 392.293945312 363.8515625 c 0
 401.619140625 328.822265625 427.806640625 329.07421875 436.504882812 337.716796875 c 0
 445.203125 346.359375 446.37890625 368.309570312 444.893554688 377.533203125 c 0
 436 476.313476562 393.456054688 502 343.420898438 502 c 0
 290.600585938 502 240.666992188 410.948242188 231.372070312 291.798828125 c 1
 224.868164062 291.798828125 218.364257812 291.7578125 211.862304688 291.537109375 c 1
 202.864257812 408.840820312 158.198242188 502 104.411132812 502 c 0
130.549804688 267.82421875 m 1
 130.61328125 262.572265625 130.721679688 257.494140625 130.721679688 252 c 0
 130.721679688 79.2060546875 119.228515625 42 94.5810546875 42 c 0
 59.4296875 42 37.7587890625 252 130.549804688 267.82421875 c 1
EndSplineSet
EndChar

StartChar: R
Encoding: 82 82 69
Width: 265
VWidth: 752
Flags: HW
LayerCount: 2
Fore
SplineSet
140 750.67578125 m 1
 50 729.6875 l 1
 5 718.7265625 l 1
 5 705.7265625 l 1
 47.6572265625 705.7265625 50 689.325195312 50 655.6875 c 2
 50 651.681640625 l 1
 50 95 l 2
 50 51.5 77.30078125 2 154.865234375 2 c 0
 201.366210938 2 237.323242188 33.572265625 260 95 c 1
 250 107 l 1
 250 107 225.23828125 54.89453125 188.791015625 54.89453125 c 0
 161.002929688 54.89453125 144.666015625 65.4951171875 140 111.263671875 c 1
 140 651.681640625 l 1
 140 750.67578125 l 1
EndSplineSet
Validated: 524297
EndChar

StartChar: S
Encoding: 83 83 70
Width: 403
VWidth: 752
Flags: HW
LayerCount: 2
Fore
SplineSet
140 502 m 1
 50 481.009765625 l 1
 5 470.05078125 l 1
 5 457.05078125 l 1
 47.6572265625 457.05078125 50 440.6484375 50 407.009765625 c 2
 50 2 l 1
 140 2 l 1
 140 50.275390625 l 1
 166.88671875 19.984375 200.002929688 2 235.89453125 2 c 0
 325.697265625 2 398.498046875 113.9296875 398.498046875 252 c 0
 398.498046875 390.0703125 325.697265625 502 235.89453125 502 c 0
 196.366210938 502 163.809570312 489.358398438 140 466.623046875 c 1
 140 502 l 1
213.78125 468.392578125 m 0
 254.376953125 468.392578125 294.810546875 411.624023438 294.810546875 252 c 0
 294.810546875 100.336914062 271.373046875 39 234.650390625 39 c 0
 214.409179688 39 174.44140625 38.83984375 140 83.2421875 c 1
 140 436.298828125 l 1
 156.594726562 452.975585938 181.044921875 468.990234375 213.78125 468.392578125 c 0
EndSplineSet
Validated: 524329
EndChar

StartChar: T
Encoding: 84 84 71
Width: 432
VWidth: 752
Flags: HW
LayerCount: 2
Fore
SplineSet
140 502 m 1
 50 481.009765625 l 1
 5 470.05078125 l 1
 5 457.05078125 l 1
 47.6572265625 457.05078125 50 440.6484375 50 407.009765625 c 2
 50 2 l 1
 140 2 l 1
 263.5 400.294921875 l 1
 263.5 95 l 2
 263.5 51.5 288.204101562 2 338.935546875 2 c 0
 399.286132812 2 419.208984375 64.05859375 427.5 95 c 1
 417.5 107 l 1
 399.888671875 60.078125 374.865234375 55.751953125 362.775390625 66.33203125 c 0
 352.293945312 75.50390625 353.5 95.69921875 353.5 111.263671875 c 2
 353.5 502 l 1
 263.5 502 l 1
 140 103.705078125 l 1
 140 502 l 1
EndSplineSet
Validated: 524329
EndChar

StartChar: U
Encoding: 85 85 72
Width: 320
VWidth: 752
Flags: HW
LayerCount: 2
Fore
SplineSet
152.895507812 502 m 0
 86.5439453125 502 39.626953125 466.614257812 21.2451171875 407.107421875 c 1
 32.55859375 391.991210938 l 1
 32.55859375 391.991210938 63.1494140625 469.62890625 130.782226562 468.393554688 c 0
 171.377929688 468.393554688 211.811523438 411.624023438 211.811523438 252 c 0
 211.811523438 100.336914062 188.374023438 39 151.651367188 39 c 0
 124.326171875 39 61.037109375 38.6171875 23.9482421875 148.130859375 c 1
 5 148.130859375 l 1
 30.654296875 61.9267578125 87.2060546875 2 152.895507812 2 c 0
 242.698242188 2 315.498046875 113.9296875 315.498046875 252 c 0
 315.498046875 390.0703125 242.698242188 502 152.895507812 502 c 0
EndSplineSet
Validated: 524329
EndChar

StartChar: V
Encoding: 86 86 73
Width: 434
VWidth: 752
Flags: HW
LayerCount: 2
Fore
SplineSet
201 502 m 2
 151.948242188 502 55 469.501953125 55 381 c 2
 55 2 l 1
 145 2 l 1
 145 364.736328125 l 2
 145 399.14453125 156.645507812 469.501953125 201 469.501953125 c 2
 209 469.501953125 l 1
 217 469.501953125 l 2
 261.35546875 469.501953125 273 399.14453125 273 364.736328125 c 2
 273 50 l 2
 273 -29.37109375 227.373046875 -107.069335938 147.923828125 -129.474609375 c 1
 92.07421875 -136.466796875 5 -236.7109375 5 -236.7109375 c 2
 13 -244.47265625 l 1
 47.66015625 -200.235351562 121.13671875 -195.084960938 162.537109375 -202.513671875 c 0
 172.598632812 -207.25390625 281.571289062 -245.485351562 291.603515625 -245.185546875 c 0
 347.125 -243.526367188 429.15625 -137.552734375 429.15625 -137.552734375 c 2
 421.15625 -129.791015625 l 1
 386.498046875 -174.026367188 331.024414062 -182.1796875 281.625 -171.751953125 c 0
 274.900390625 -168.583984375 224.237304688 -150.572265625 188.201171875 -138.986328125 c 1
 260.737304688 -107.637695312 363 -21.6875 363 50 c 2
 363 381 l 2
 363 469.501953125 266.051757812 502 217 502 c 2
 209 502 l 1
 201 502 l 2
EndSplineSet
Validated: 524329
EndChar

StartChar: W
Encoding: 87 87 74
Width: 375
VWidth: 752
Flags: HW
LayerCount: 2
Fore
SplineSet
187.5 502 m 0
 86.7080078125 502 5 390.071289062 5 252 c 0
 5 113.928710938 86.7080078125 2 187.5 2 c 0
 288.291992188 2 370 113.928710938 370 252 c 0
 370 390.071289062 288.291992188 502 187.5 502 c 0
157.819335938 474.89453125 m 0
 203.016601562 480.653320312 252.9453125 391.052734375 269.337890625 262.4296875 c 0
 285.731445312 133.805664062 262.379882812 34.865234375 217.181640625 29.10546875 c 0
 171.984375 23.3466796875 122.0546875 112.947265625 105.662109375 241.5703125 c 0
 89.2685546875 370.194335938 112.62109375 469.134765625 157.819335938 474.89453125 c 0
EndSplineSet
Validated: 524329
EndChar

StartChar: X
Encoding: 88 88 75
Width: 440
VWidth: 752
Flags: HW
LayerCount: 2
Fore
SplineSet
127 502 m 2
 77.947265625 502 5 469.501953125 5 381 c 2
 5 2 l 1
 95 2 l 1
 95 364.736328125 l 2
 95 499.204101562 175 510.485351562 175 364.736328125 c 2
 175 2 l 1
 265 2 l 1
 265 364.736328125 l 2
 265 510.485351562 345 499.204101562 345 364.736328125 c 2
 345 40.18359375 l 1
 345 -23.736328125 l 2
 345 -77.3974609375 358.456054688 -221.072265625 289.45703125 -222.046875 c 0
 270 -225.458984375 256.443359375 -205.509765625 252.71484375 -190.05859375 c 0
 235.959960938 -152.028320312 207.82421875 -153.462890625 188.685546875 -160.173828125 c 0
 141.57421875 -176.693359375 188.74609375 -248 279.22265625 -248 c 0
 407.69921875 -248 435 -83.5 435 -40 c 2
 435 40.18359375 l 1
 435 367 l 1
 435 381 l 2
 435 469.501953125 362.051757812 502 313 502 c 2
 297 502 l 2
 269.819335938 502 238.762695312 486 220 453.501953125 c 1
 201.237304688 486 170.1796875 502 143 502 c 2
 127 502 l 2
EndSplineSet
Validated: 524329
EndChar

StartChar: Y
Encoding: 89 89 76
Width: 410
VWidth: 752
Flags: HW
LayerCount: 2
Fore
SplineSet
104.413085938 502 m 0
 59.87890625 502 18.9375 466.614257812 6.6005859375 407.107421875 c 1
 14.1923828125 393.9921875 l 1
 14.1923828125 393.9921875 44.1767578125 469.627929688 89.5712890625 468.392578125 c 0
 114.825195312 468.392578125 130.256835938 432.581054688 130.256835938 285.232421875 c 1
 -2.9365234375 246.487304688 5.0927734375 114.130859375 5.0927734375 114.130859375 c 1
 5.0927734375 36.5888671875 40.30859375 2 109.348632812 2 c 0
 171.205078125 2 213.547851562 72.7578125 213.547851562 252 c 0
 213.547851562 261.502929688 213.294921875 266.866210938 212.844726562 276.09375 c 1
 226.223632812 276.549804688 234.859375 276.026367188 240.500976562 275.55078125 c 1
 240.500976562 95 l 2
 240.500976562 51.5 265.203125 2 315.934570312 2 c 0
 376.28515625 2 396.209960938 64.05859375 404.500976562 95 c 1
 394.500976562 107 l 1
 376.889648438 60.078125 351.866210938 55.751953125 339.776367188 66.33203125 c 0
 329.294921875 75.50390625 330.500976562 95.69921875 330.500976562 111.263671875 c 2
 330.500976562 403.005859375 l 1
 330.500976562 502 l 1
 240.500976562 481.009765625 l 1
 195.500976562 470.05078125 l 1
 195.500976562 457.05078125 l 1
 238.157226562 457.05078125 240.500976562 440.6484375 240.500976562 407.009765625 c 2
 240.500976562 403.005859375 l 1
 240.500976562 291.79296875 l 1
 230.954101562 291.810546875 221.408203125 291.860351562 211.864257812 291.537109375 c 1
 202.865234375 408.840820312 158.19921875 502 104.413085938 502 c 0
130.551757812 267.82421875 m 1
 130.614257812 262.572265625 130.723632812 257.494140625 130.723632812 252 c 0
 130.723632812 79.2060546875 119.23046875 42 94.5830078125 42 c 0
 59.431640625 42 37.7607421875 252 130.551757812 267.82421875 c 1
EndSplineSet
EndChar

StartChar: Z
Encoding: 90 90 77
Width: 432
VWidth: 752
Flags: HW
LayerCount: 2
Fore
SplineSet
140 502 m 1
 50 481.009765625 l 1
 5 470.05078125 l 1
 5 457.05078125 l 1
 47.6572265625 457.05078125 50 440.6484375 50 407.009765625 c 2
 50 2 l 1
 140 2 l 1
 263.5 400.294921875 l 1
 263.5 95 l 2
 263.5 51.5 288.204101562 2 338.935546875 2 c 0
 399.286132812 2 419.208984375 64.05859375 427.5 95 c 1
 417.5 107 l 1
 399.888671875 60.078125 374.865234375 55.751953125 362.775390625 66.33203125 c 0
 352.293945312 75.50390625 353.5 95.69921875 353.5 111.263671875 c 2
 353.5 502 l 1
 263.5 502 l 1
 140 103.705078125 l 1
 140 502 l 1
110.744140625 -76.251953125 m 1
 114.504882812 -131.266601562 160.321289062 -174.900390625 216.25 -175.04296875 c 0
 272.178710938 -174.900390625 317.995117188 -131.266601562 321.755859375 -76.251953125 c 1
 321.748046875 -76.3447265625 308.037109375 -76.251953125 308.037109375 -76.251953125 c 1
 301.58984375 -100.88671875 262.926757812 -119.900390625 216.25 -119.91796875 c 0
 169.57421875 -119.899414062 130.912109375 -100.88671875 124.46484375 -76.251953125 c 1
 124.469726562 -76.3037109375 110.744140625 -76.251953125 110.744140625 -76.251953125 c 1
EndSplineSet
Validated: 524329
EndChar

StartChar: k
Encoding: 107 107 78
Width: 312
VWidth: 750
Flags: HW
LayerCount: 2
Fore
SplineSet
163 500 m 0
 75.7392578125 500 5 388.071289062 5 250 c 0
 5 111.928710938 75.7392578125 0 163 0 c 0
 226.830078125 0 281.783203125 59.9267578125 306.7109375 146.130859375 c 1
 288.296875 146.130859375 l 1
 235.565429688 59.3359375 197.16015625 74.091796875 179.791015625 74.091796875 c 0
 162.999023438 74.091796875 104.1484375 98.3369140625 104.1484375 250 c 0
 104.1484375 262.2578125 104.247070312 272.85546875 104.314453125 283.94140625 c 1
 298.7109375 283.94140625 l 1
 298.7109375 283.990234375 l 1
 299.422851562 283.985351562 299.975585938 283.94140625 300.7109375 283.94140625 c 0
 310.321289062 416.948242188 259.389648438 500 163 500 c 0
151.685546875 467.302734375 m 0
 194.943359375 467.302734375 223.416015625 395.340820312 223.416015625 312.224609375 c 1
 104.544921875 312.224609375 l 1
 106.220703125 423.837890625 114.671875 467.302734375 151.685546875 467.302734375 c 0
EndSplineSet
Validated: 524329
EndChar

StartChar: bar
Encoding: 124 124 79
Width: 330
VWidth: 774
Flags: HW
LayerCount: 2
Fore
SplineSet
5 360 m 1
 120 360 l 1
 210 360 l 1
 325 360 l 1
 325 332 l 1
 210 332 l 1
 210 140 l 1
 120 140 l 1
 120 332 l 1
 5 332 l 1
 5 360 l 1
EndSplineSet
Validated: 1
EndChar
